<?xml version="1.0" encoding="utf-8"?>
<!-- Generator: Adobe Illustrator 22.0.1, SVG Export Plug-In . SVG Version: 6.00 Build 0)  -->
<svg version="1.1" id="Layer_1" xmlns="http://www.w3.org/2000/svg" xmlns:xlink="http://www.w3.org/1999/xlink" x="0px" y="0px"
	 viewBox="0 0 192.2 288.3" style="enable-background:new 0 0 192.2 288.3;" xml:space="preserve">
<style type="text/css">
	.st0{clip-path:url(#SVGID_2_);fill:url(#SVGID_3_);}
	.st1{fill:none;stroke:#6D5EA8;stroke-width:1.17;stroke-miterlimit:10;}
	.st2{clip-path:url(#SVGID_5_);fill:url(#SVGID_6_);}
	.st3{clip-path:url(#SVGID_8_);fill:url(#SVGID_9_);}
	.st4{clip-path:url(#SVGID_11_);fill:url(#SVGID_12_);}
	.st5{clip-path:url(#SVGID_14_);fill:url(#SVGID_15_);}
	.st6{clip-path:url(#SVGID_17_);fill:url(#SVGID_18_);}
	.st7{fill:#6D5EA8;}
	.st8{fill:#3E5571;}
	.st9{clip-path:url(#SVGID_20_);fill:url(#SVGID_21_);}
	.st10{clip-path:url(#SVGID_23_);fill:url(#SVGID_24_);}
	.st11{clip-path:url(#SVGID_26_);fill:url(#SVGID_27_);}
	.st12{clip-path:url(#SVGID_29_);fill:url(#SVGID_30_);}
	.st13{clip-path:url(#SVGID_32_);fill:url(#SVGID_33_);}
	.st14{fill:none;stroke:#6D5EA8;stroke-width:1.64;stroke-linecap:round;stroke-miterlimit:10;}
	.st15{clip-path:url(#SVGID_35_);fill:url(#SVGID_36_);}
	.st16{clip-path:url(#SVGID_38_);fill:url(#SVGID_39_);}
	.st17{clip-path:url(#SVGID_41_);fill:url(#SVGID_42_);}
	.st18{clip-path:url(#SVGID_44_);fill:url(#SVGID_45_);}
	.st19{clip-path:url(#SVGID_47_);fill:url(#SVGID_48_);}
	.st20{clip-path:url(#SVGID_50_);fill:url(#SVGID_51_);}
	.st21{clip-path:url(#SVGID_53_);fill:url(#SVGID_54_);}
	.st22{clip-path:url(#SVGID_56_);fill:url(#SVGID_57_);}
	.st23{clip-path:url(#SVGID_59_);fill:url(#SVGID_60_);}
	.st24{clip-path:url(#SVGID_62_);fill:url(#SVGID_63_);}
	.st25{clip-path:url(#SVGID_65_);fill:url(#SVGID_66_);}
	.st26{clip-path:url(#SVGID_68_);fill:url(#SVGID_69_);}
	.st27{clip-path:url(#SVGID_71_);fill:url(#SVGID_72_);}
	.st28{clip-path:url(#SVGID_74_);fill:url(#SVGID_75_);}
	.st29{clip-path:url(#SVGID_77_);fill:url(#SVGID_78_);}
	.st30{clip-path:url(#SVGID_80_);fill:url(#SVGID_81_);}
	.st31{clip-path:url(#SVGID_83_);fill:url(#SVGID_84_);}
	.st32{clip-path:url(#SVGID_86_);fill:url(#SVGID_87_);}
	.st33{clip-path:url(#SVGID_89_);fill:url(#SVGID_90_);}
	.st34{clip-path:url(#SVGID_92_);fill:url(#SVGID_93_);}
	.st35{clip-path:url(#SVGID_95_);fill:url(#SVGID_96_);}
	.st36{clip-path:url(#SVGID_98_);fill:url(#SVGID_99_);}
	.st37{fill:#31435D;}
	.st38{fill:none;stroke:#31435D;stroke-width:0.547;stroke-miterlimit:10;}
</style>
<g>
	<g>
		<g>
			<defs>
				<path id="SVGID_1_" d="M64,60.8h10.7c4.9,0,8.4,1.2,10.5,3.6c2.1,2.4,3.1,6.2,3.1,11.3v28.4c0,5.3-1.1,9.1-3.3,11.4
					c-2.2,2.4-5.6,3.5-10.1,3.5H64V60.8z M55.1,44.9h-5.7h-1.6c0.5,0.5,0.8,1.2,0.8,1.9c0,0.7-0.3,1.4-0.8,1.9
					c-1.8,1.8-2.8,4.2-2.8,6.7c0,2.5,1,4.9,2.8,6.7c0.5,0.5,0.8,1.2,0.8,1.9c0,0.7-0.3,1.4-0.8,1.9c-1.8,1.8-2.8,4.2-2.8,6.7
					c0,2.5,1,4.9,2.8,6.7h0c0.5,0.5,0.8,1.2,0.8,1.9c0,0.7-0.3,1.4-0.8,1.9c-1.8,1.8-2.8,4.2-2.8,6.7c0,2.5,1,4.9,2.8,6.7
					c0.5,0.5,0.8,1.2,0.8,1.9c0,0.7-0.3,1.4-0.8,1.9c-1.8,1.8-2.8,4.2-2.8,6.7c0,2.5,1,4.9,2.8,6.7l0,0c0.5,0.5,0.8,1.2,0.8,1.9
					c0,0.7-0.3,1.4-0.8,1.9c-1.8,1.8-2.8,4.2-2.8,6.7c0,2.5,1,4.9,2.8,6.7c0,0,0,0.1,0.1,0.1l-0.1,0.1c0.5,0.5,0.8,1.2,0.8,1.9
					c0,0.7-0.3,1.4-0.8,1.9c-1.8,1.8-2.8,4.2-2.8,6.7c0,0,0,0.1,0,0.1c0,0,0,0,0,0.1c0,2.5,1,4.9,2.8,6.7c0.5,0.5,0.8,1.2,0.8,1.9
					c0,0.7-0.3,1.4-0.8,1.9c-1.8,1.8-2.8,4.2-2.8,6.7c0,2.5,1,4.9,2.8,6.7h0c0.5,0.5,0.8,1.2,0.8,1.9c0,0.7-0.3,1.4-0.8,1.9
					c-1.8,1.8-2.8,4.2-2.8,6.7c0,2.5,1,4.9,2.8,6.7c0.5,0.5,0.8,1.2,0.8,1.9c0,0.7-0.3,1.4-0.8,1.9c-1.8,1.8-2.8,4.2-2.8,6.7
					c0,2.5,1,4.9,2.8,6.7l0,0c0.5,0.5,0.8,1.2,0.8,1.9c0,0.7-0.3,1.4-0.8,1.9c-1.8,1.8-2.8,4.2-2.8,6.7c0,1.7,0.4,3.3,1.2,4.7h3.2v0
					H64v-81.1h10.9c9.9,0,17.2-2.4,21.8-7.3c4.7-4.8,7-12.6,7-23.4v-28c0-10.8-2.4-18.6-7.1-23.5c-4.7-4.9-12.1-7.4-21.9-7.4H55.1z"
					/>
			</defs>
			<clipPath id="SVGID_2_">
				<use xlink:href="#SVGID_1_"  style="overflow:visible;"/>
			</clipPath>
			
				<linearGradient id="SVGID_3_" gradientUnits="userSpaceOnUse" x1="-538.967" y1="1512.9189" x2="-538.5163" y2="1512.9189" gradientTransform="matrix(0 -378.6217 378.6217 0 -572749.5625 -203849.1094)">
				<stop  offset="0" style="stop-color:#F8E452"/>
				<stop  offset="7.389160e-02" style="stop-color:#F8E452"/>
				<stop  offset="0.2008" style="stop-color:#EEE25B"/>
				<stop  offset="0.4199" style="stop-color:#D2DC74"/>
				<stop  offset="0.7048" style="stop-color:#A4D49D"/>
				<stop  offset="1" style="stop-color:#6EC9CD"/>
			</linearGradient>
			<rect x="44.9" y="44.9" class="st0" width="58.8" height="170.7"/>
		</g>
		<path class="st1" d="M96.5,69.3c0-5.1-1-8.9-3.1-11.3c-2.1-2.4-5.6-3.6-10.5-3.6"/>
		<g>
			<defs>
				<path id="SVGID_4_" d="M84.3,146.9c0,0.8,0.6,1.4,1.4,1.4c0.8,0,1.4-0.6,1.4-1.4c0-0.8-1.4-3.4-1.4-3.4S84.3,146.1,84.3,146.9"
					/>
			</defs>
			<clipPath id="SVGID_5_">
				<use xlink:href="#SVGID_4_"  style="overflow:visible;"/>
			</clipPath>
			
				<linearGradient id="SVGID_6_" gradientUnits="userSpaceOnUse" x1="-533.9151" y1="1562.8218" x2="-533.4643" y2="1562.8218" gradientTransform="matrix(0 10.823 -10.823 0 17000.1641 5922.0195)">
				<stop  offset="0" style="stop-color:#F8E452"/>
				<stop  offset="7.389160e-02" style="stop-color:#F8E452"/>
				<stop  offset="0.417" style="stop-color:#F6BC61"/>
				<stop  offset="1" style="stop-color:#F16F7C"/>
			</linearGradient>
			<rect x="84.3" y="143.5" class="st2" width="2.9" height="4.9"/>
		</g>
		<g>
			<defs>
				<path id="SVGID_7_" d="M80.5,150.1c0,0-1,1.9-1,2.5c0,0.6,0.5,1,1,1c0.6,0,1-0.5,1-1C81.6,152,80.6,150.1,80.5,150.1L80.5,150.1
					z"/>
			</defs>
			<clipPath id="SVGID_8_">
				<use xlink:href="#SVGID_7_"  style="overflow:visible;"/>
			</clipPath>
			
				<linearGradient id="SVGID_9_" gradientUnits="userSpaceOnUse" x1="-532.9228" y1="1581.3799" x2="-532.4722" y2="1581.3799" gradientTransform="matrix(0 7.7322 -7.7322 0 12308.0713 4270.7251)">
				<stop  offset="0" style="stop-color:#F8E452"/>
				<stop  offset="7.389160e-02" style="stop-color:#F8E452"/>
				<stop  offset="0.417" style="stop-color:#F6BC61"/>
				<stop  offset="1" style="stop-color:#F16F7C"/>
			</linearGradient>
			<rect x="79.5" y="150.1" class="st3" width="2.1" height="3.5"/>
		</g>
		<g>
			<defs>
				<path id="SVGID_10_" d="M86.1,162.3c0,0.5,0.4,0.8,0.8,0.8c0.5,0,0.8-0.4,0.8-0.8c0-0.5-0.8-2-0.8-2S86.1,161.8,86.1,162.3"/>
			</defs>
			<clipPath id="SVGID_11_">
				<use xlink:href="#SVGID_10_"  style="overflow:visible;"/>
			</clipPath>
			
				<linearGradient id="SVGID_12_" gradientUnits="userSpaceOnUse" x1="-533.6171" y1="1597.3527" x2="-533.1665" y2="1597.3527" gradientTransform="matrix(0 6.3319 -6.3319 0 10201.2656 3539.0664)">
				<stop  offset="0" style="stop-color:#F8E452"/>
				<stop  offset="7.389160e-02" style="stop-color:#F8E452"/>
				<stop  offset="0.417" style="stop-color:#F6BC61"/>
				<stop  offset="1" style="stop-color:#F16F7C"/>
			</linearGradient>
			<rect x="86.1" y="160.3" class="st4" width="1.7" height="2.9"/>
		</g>
		<g>
			<defs>
				<path id="SVGID_13_" d="M78.3,172.9c0,0.8,0.7,1.5,1.5,1.5c0.8,0,1.5-0.7,1.5-1.5c0-0.8-1.5-3.5-1.5-3.5S78.3,172.1,78.3,172.9"
					/>
			</defs>
			<clipPath id="SVGID_14_">
				<use xlink:href="#SVGID_13_"  style="overflow:visible;"/>
			</clipPath>
			
				<linearGradient id="SVGID_15_" gradientUnits="userSpaceOnUse" x1="-536.8904" y1="1561.1039" x2="-536.4397" y2="1561.1039" gradientTransform="matrix(0 11.0629 -11.0629 0 17350.1445 6108.938)">
				<stop  offset="0" style="stop-color:#F8E452"/>
				<stop  offset="7.389160e-02" style="stop-color:#F8E452"/>
				<stop  offset="0.417" style="stop-color:#F6BC61"/>
				<stop  offset="1" style="stop-color:#F16F7C"/>
			</linearGradient>
			<rect x="78.3" y="169.4" class="st5" width="2.9" height="5"/>
		</g>
		<g>
			<defs>
				<path id="SVGID_16_" d="M84.8,189.1c0,0.6,0.5,1.1,1.1,1.1c0.6,0,1.1-0.5,1.1-1.1c0-0.6-1.1-2.6-1.1-2.6S84.8,188.5,84.8,189.1"
					/>
			</defs>
			<clipPath id="SVGID_17_">
				<use xlink:href="#SVGID_16_"  style="overflow:visible;"/>
			</clipPath>
			
				<linearGradient id="SVGID_18_" gradientUnits="userSpaceOnUse" x1="-538.6805" y1="1578.6226" x2="-538.23" y2="1578.6226" gradientTransform="matrix(0 8.1675 -8.1675 0 12979.3018 4586.2148)">
				<stop  offset="0" style="stop-color:#F8E452"/>
				<stop  offset="7.389160e-02" style="stop-color:#F8E452"/>
				<stop  offset="0.417" style="stop-color:#F6BC61"/>
				<stop  offset="1" style="stop-color:#F16F7C"/>
			</linearGradient>
			<rect x="84.8" y="186.5" class="st6" width="2.2" height="3.7"/>
		</g>
		<path class="st7" d="M97.6,93.9c0,0.3-0.2,0.6-0.6,0.6c-0.2,0-0.5-0.2-0.5-0.6c0-0.3,0.2-0.6,0.5-0.6
			C97.3,93.3,97.6,93.5,97.6,93.9 M97.6,91.2c0,0.3-0.2,0.6-0.6,0.6c-0.2,0-0.5-0.2-0.5-0.6c0-0.2,0.2-0.6,0.5-0.6
			C97.3,90.6,97.6,91,97.6,91.2 M97.6,88.5c0,0.3-0.2,0.6-0.6,0.6c-0.2,0-0.5-0.2-0.5-0.6c0-0.2,0.2-0.6,0.5-0.6
			C97.3,87.9,97.6,88.3,97.6,88.5 M97.6,85.8c0,0.3-0.2,0.6-0.6,0.6c-0.2,0-0.5-0.2-0.5-0.6c0-0.2,0.2-0.5,0.5-0.5
			C97.3,85.3,97.6,85.6,97.6,85.8 M97.6,83.1c0,0.3-0.2,0.6-0.6,0.6c-0.2,0-0.5-0.2-0.5-0.6c0-0.2,0.2-0.5,0.5-0.5
			C97.3,82.6,97.6,82.8,97.6,83.1 M97.6,80.4c0,0.3-0.2,0.6-0.6,0.6c-0.2,0-0.5-0.2-0.5-0.6c0-0.2,0.2-0.5,0.5-0.5
			C97.3,79.9,97.6,80.1,97.6,80.4 M97.6,77.7c0,0.3-0.2,0.6-0.6,0.6c-0.2,0-0.5-0.2-0.5-0.6c0-0.2,0.2-0.4,0.5-0.4
			C97.3,77.2,97.6,77.4,97.6,77.7 M97.6,75.1c0,0.2-0.2,0.5-0.6,0.5c-0.2,0-0.5-0.2-0.5-0.5c0-0.3,0.2-0.6,0.5-0.6
			C97.3,74.5,97.6,74.7,97.6,75.1"/>
		<path class="st7" d="M97.6,110.1c0,0.3-0.2,0.6-0.6,0.6c-0.2,0-0.5-0.2-0.5-0.6c0-0.2,0.2-0.5,0.5-0.5
			C97.3,109.7,97.6,109.9,97.6,110.1 M97.6,107.4c0,0.3-0.2,0.6-0.6,0.6c-0.2,0-0.5-0.2-0.5-0.6c0-0.2,0.2-0.4,0.5-0.4
			C97.3,107,97.6,107.2,97.6,107.4 M97.6,104.7c0,0.3-0.2,0.6-0.6,0.6c-0.2,0-0.5-0.2-0.5-0.6c0-0.2,0.2-0.5,0.5-0.5
			C97.3,104.3,97.6,104.5,97.6,104.7 M97.6,102.1c0,0.2-0.2,0.4-0.6,0.4c-0.2,0-0.5-0.2-0.5-0.4c0-0.3,0.2-0.6,0.5-0.6
			C97.3,101.5,97.6,101.8,97.6,102.1 M97.6,99.4c0,0.2-0.2,0.5-0.6,0.5c-0.2,0-0.5-0.2-0.5-0.5c0-0.3,0.2-0.6,0.5-0.6
			C97.3,98.8,97.6,99.1,97.6,99.4 M97.6,96.7c0,0.2-0.2,0.5-0.6,0.5c-0.2,0-0.5-0.2-0.5-0.5c0-0.3,0.2-0.6,0.5-0.6
			C97.3,96.1,97.6,96.4,97.6,96.7"/>
		<path class="st7" d="M52.7,69.3c0,0.3-0.2,0.6-0.6,0.6c-0.2,0-0.4-0.2-0.4-0.6c0-0.3,0.2-0.6,0.4-0.6C52.5,68.7,52.7,69,52.7,69.3
			 M52.7,66.6c0,0.3-0.2,0.6-0.6,0.6c-0.2,0-0.4-0.2-0.4-0.6c0-0.2,0.2-0.6,0.4-0.6C52.5,66,52.7,66.4,52.7,66.6 M52.7,63.9
			c0,0.3-0.2,0.6-0.6,0.6c-0.2,0-0.4-0.2-0.4-0.6c0-0.2,0.2-0.6,0.4-0.6C52.5,63.3,52.7,63.7,52.7,63.9 M52.7,61.2
			c0,0.3-0.2,0.6-0.6,0.6c-0.2,0-0.4-0.2-0.4-0.6c0-0.2,0.2-0.5,0.4-0.5C52.5,60.7,52.7,61,52.7,61.2 M52.7,58.5
			c0,0.3-0.2,0.6-0.6,0.6c-0.2,0-0.4-0.2-0.4-0.6c0-0.2,0.2-0.5,0.4-0.5C52.5,58,52.7,58.3,52.7,58.5 M52.7,55.8
			c0,0.3-0.2,0.6-0.6,0.6c-0.2,0-0.4-0.2-0.4-0.6c0-0.2,0.2-0.5,0.4-0.5C52.5,55.3,52.7,55.6,52.7,55.8 M52.7,53.1
			c0,0.3-0.2,0.6-0.6,0.6c-0.2,0-0.4-0.2-0.4-0.6c0-0.2,0.2-0.5,0.4-0.5C52.5,52.6,52.7,52.9,52.7,53.1 M52.7,50.5
			c0,0.2-0.2,0.5-0.6,0.5c-0.2,0-0.4-0.2-0.4-0.5c0-0.3,0.2-0.6,0.4-0.6C52.5,49.9,52.7,50.2,52.7,50.5"/>
		<path class="st7" d="M52.7,85.5c0,0.3-0.2,0.6-0.6,0.6c-0.2,0-0.4-0.2-0.4-0.6c0-0.2,0.2-0.5,0.4-0.5
			C52.5,85.1,52.7,85.3,52.7,85.5 M52.7,82.8c0,0.3-0.2,0.6-0.6,0.6c-0.2,0-0.4-0.2-0.4-0.6c0-0.2,0.2-0.4,0.4-0.4
			C52.5,82.4,52.7,82.6,52.7,82.8 M52.7,80.1c0,0.3-0.2,0.6-0.6,0.6c-0.2,0-0.4-0.2-0.4-0.6c0-0.2,0.2-0.5,0.4-0.5
			C52.5,79.7,52.7,79.9,52.7,80.1 M52.7,77.5c0,0.2-0.2,0.5-0.6,0.5c-0.2,0-0.4-0.2-0.4-0.5c0-0.3,0.2-0.6,0.4-0.6
			C52.5,77,52.7,77.2,52.7,77.5 M52.7,74.8c0,0.2-0.2,0.5-0.6,0.5c-0.2,0-0.4-0.2-0.4-0.5c0-0.3,0.2-0.6,0.4-0.6
			C52.5,74.3,52.7,74.5,52.7,74.8 M52.7,72.1c0,0.2-0.2,0.5-0.6,0.5c-0.2,0-0.4-0.2-0.4-0.5c0-0.3,0.2-0.6,0.4-0.6
			C52.5,71.6,52.7,71.8,52.7,72.1"/>
		<path class="st7" d="M52.7,107.4c0,0.3-0.2,0.6-0.6,0.6c-0.2,0-0.4-0.2-0.4-0.6c0-0.3,0.2-0.6,0.4-0.6
			C52.5,106.9,52.7,107.1,52.7,107.4 M52.7,104.7c0,0.3-0.2,0.6-0.6,0.6c-0.2,0-0.4-0.2-0.4-0.6c0-0.2,0.2-0.6,0.4-0.6
			C52.5,104.2,52.7,104.5,52.7,104.7 M52.7,102c0,0.3-0.2,0.6-0.6,0.6c-0.2,0-0.4-0.2-0.4-0.6c0-0.2,0.2-0.6,0.4-0.6
			C52.5,101.5,52.7,101.8,52.7,102 M52.7,99.3c0,0.3-0.2,0.6-0.6,0.6c-0.2,0-0.4-0.2-0.4-0.6c0-0.2,0.2-0.5,0.4-0.5
			C52.5,98.9,52.7,99.1,52.7,99.3 M52.7,96.6c0,0.3-0.2,0.6-0.6,0.6c-0.2,0-0.4-0.2-0.4-0.6c0-0.2,0.2-0.5,0.4-0.5
			C52.5,96.2,52.7,96.4,52.7,96.6 M52.7,93.9c0,0.3-0.2,0.6-0.6,0.6c-0.2,0-0.4-0.2-0.4-0.6c0-0.2,0.2-0.5,0.4-0.5
			C52.5,93.5,52.7,93.7,52.7,93.9 M52.7,91.2c0,0.3-0.2,0.6-0.6,0.6c-0.2,0-0.4-0.2-0.4-0.6c0-0.2,0.2-0.5,0.4-0.5
			C52.5,90.7,52.7,91,52.7,91.2 M52.7,88.6c0,0.2-0.2,0.4-0.6,0.4c-0.2,0-0.4-0.2-0.4-0.4c0-0.3,0.2-0.6,0.4-0.6
			C52.5,88,52.7,88.3,52.7,88.6"/>
		<path class="st7" d="M52.7,123.6c0,0.3-0.2,0.6-0.6,0.6c-0.2,0-0.4-0.2-0.4-0.6c0-0.2,0.2-0.5,0.4-0.5
			C52.5,123.2,52.7,123.4,52.7,123.6 M52.7,120.9c0,0.3-0.2,0.6-0.6,0.6c-0.2,0-0.4-0.2-0.4-0.6c0-0.2,0.2-0.4,0.4-0.4
			C52.5,120.5,52.7,120.7,52.7,120.9 M52.7,118.2c0,0.3-0.2,0.6-0.6,0.6c-0.2,0-0.4-0.2-0.4-0.6c0-0.2,0.2-0.5,0.4-0.5
			C52.5,117.8,52.7,118,52.7,118.2 M52.7,115.6c0,0.2-0.2,0.5-0.6,0.5c-0.2,0-0.4-0.2-0.4-0.5c0-0.3,0.2-0.6,0.4-0.6
			C52.5,115.1,52.7,115.3,52.7,115.6 M52.7,112.9c0,0.2-0.2,0.5-0.6,0.5c-0.2,0-0.4-0.2-0.4-0.5c0-0.3,0.2-0.6,0.4-0.6
			C52.5,112.4,52.7,112.6,52.7,112.9 M52.7,110.2c0,0.2-0.2,0.5-0.6,0.5c-0.2,0-0.4-0.2-0.4-0.5c0-0.3,0.2-0.6,0.4-0.6
			C52.5,109.7,52.7,109.9,52.7,110.2"/>
		<path class="st7" d="M52.7,145.6c0,0.3-0.2,0.6-0.6,0.6c-0.2,0-0.4-0.2-0.4-0.6c0-0.3,0.2-0.6,0.4-0.6
			C52.5,145,52.7,145.3,52.7,145.6 M52.7,142.9c0,0.3-0.2,0.6-0.6,0.6c-0.2,0-0.4-0.2-0.4-0.6c0-0.2,0.2-0.6,0.4-0.6
			C52.5,142.3,52.7,142.7,52.7,142.9 M52.7,140.2c0,0.3-0.2,0.6-0.6,0.6c-0.2,0-0.4-0.2-0.4-0.6c0-0.2,0.2-0.6,0.4-0.6
			C52.5,139.6,52.7,140,52.7,140.2 M52.7,137.5c0,0.3-0.2,0.6-0.6,0.6c-0.2,0-0.4-0.2-0.4-0.6c0-0.2,0.2-0.5,0.4-0.5
			C52.5,137,52.7,137.3,52.7,137.5 M52.7,134.8c0,0.3-0.2,0.6-0.6,0.6c-0.2,0-0.4-0.2-0.4-0.6c0-0.2,0.2-0.5,0.4-0.5
			C52.5,134.3,52.7,134.6,52.7,134.8 M52.7,132.1c0,0.3-0.2,0.6-0.6,0.6c-0.2,0-0.4-0.2-0.4-0.6c0-0.2,0.2-0.5,0.4-0.5
			C52.5,131.6,52.7,131.9,52.7,132.1 M52.7,129.4c0,0.3-0.2,0.6-0.6,0.6c-0.2,0-0.4-0.2-0.4-0.6c0-0.2,0.2-0.5,0.4-0.5
			C52.5,128.9,52.7,129.2,52.7,129.4 M52.7,126.8c0,0.2-0.2,0.4-0.6,0.4c-0.2,0-0.4-0.2-0.4-0.4c0-0.3,0.2-0.6,0.4-0.6
			C52.5,126.2,52.7,126.5,52.7,126.8"/>
		<path class="st7" d="M52.7,161.8c0,0.3-0.2,0.6-0.6,0.6c-0.2,0-0.4-0.2-0.4-0.6c0-0.2,0.2-0.4,0.4-0.4
			C52.5,161.4,52.7,161.6,52.7,161.8 M52.7,159.1c0,0.3-0.2,0.6-0.6,0.6c-0.2,0-0.4-0.2-0.4-0.6c0-0.2,0.2-0.4,0.4-0.4
			C52.5,158.7,52.7,158.9,52.7,159.1 M52.7,156.4c0,0.3-0.2,0.6-0.6,0.6c-0.2,0-0.4-0.2-0.4-0.6c0-0.2,0.2-0.5,0.4-0.5
			C52.5,156,52.7,156.2,52.7,156.4 M52.7,153.8c0,0.2-0.2,0.4-0.6,0.4c-0.2,0-0.4-0.2-0.4-0.4c0-0.3,0.2-0.6,0.4-0.6
			C52.5,153.3,52.7,153.5,52.7,153.8 M52.7,151.1c0,0.2-0.2,0.5-0.6,0.5c-0.2,0-0.4-0.2-0.4-0.5c0-0.3,0.2-0.6,0.4-0.6
			C52.5,150.6,52.7,150.8,52.7,151.1 M52.7,148.4c0,0.2-0.2,0.5-0.6,0.5c-0.2,0-0.4-0.2-0.4-0.5c0-0.3,0.2-0.6,0.4-0.6
			C52.5,147.9,52.7,148.1,52.7,148.4"/>
		<path class="st7" d="M52.7,184c0,0.3-0.2,0.6-0.6,0.6c-0.2,0-0.4-0.2-0.4-0.6c0-0.3,0.2-0.6,0.4-0.6
			C52.5,183.4,52.7,183.6,52.7,184 M52.7,181.3c0,0.3-0.2,0.6-0.6,0.6c-0.2,0-0.4-0.2-0.4-0.6c0-0.2,0.2-0.6,0.4-0.6
			C52.5,180.7,52.7,181,52.7,181.3 M52.7,178.6c0,0.3-0.2,0.6-0.6,0.6c-0.2,0-0.4-0.2-0.4-0.6c0-0.2,0.2-0.6,0.4-0.6
			C52.5,178,52.7,178.3,52.7,178.6 M52.7,175.9c0,0.3-0.2,0.6-0.6,0.6c-0.2,0-0.4-0.2-0.4-0.6c0-0.2,0.2-0.4,0.4-0.4
			C52.5,175.4,52.7,175.6,52.7,175.9 M52.7,173.2c0,0.3-0.2,0.6-0.6,0.6c-0.2,0-0.4-0.2-0.4-0.6c0-0.2,0.2-0.5,0.4-0.5
			C52.5,172.7,52.7,172.9,52.7,173.2 M52.7,170.5c0,0.3-0.2,0.6-0.6,0.6c-0.2,0-0.4-0.2-0.4-0.6c0-0.2,0.2-0.5,0.4-0.5
			C52.5,170,52.7,170.2,52.7,170.5 M52.7,167.7c0,0.3-0.2,0.6-0.6,0.6c-0.2,0-0.4-0.2-0.4-0.6c0-0.2,0.2-0.5,0.4-0.5
			C52.5,167.3,52.7,167.5,52.7,167.7 M52.7,165.2c0,0.2-0.2,0.5-0.6,0.5c-0.2,0-0.4-0.2-0.4-0.5c0-0.3,0.2-0.6,0.4-0.6
			C52.5,164.6,52.7,164.8,52.7,165.2"/>
		<path class="st7" d="M52.7,200.2c0,0.3-0.2,0.6-0.6,0.6c-0.2,0-0.4-0.2-0.4-0.6c0-0.2,0.2-0.5,0.4-0.5
			C52.5,199.7,52.7,200,52.7,200.2 M52.7,197.5c0,0.3-0.2,0.6-0.6,0.6c-0.2,0-0.4-0.2-0.4-0.6c0-0.2,0.2-0.4,0.4-0.4
			C52.5,197,52.7,197.3,52.7,197.5 M52.7,194.8c0,0.3-0.2,0.6-0.6,0.6c-0.2,0-0.4-0.2-0.4-0.6c0-0.2,0.2-0.5,0.4-0.5
			C52.5,194.3,52.7,194.6,52.7,194.8 M52.7,192.2c0,0.2-0.2,0.4-0.6,0.4c-0.2,0-0.4-0.2-0.4-0.4c0-0.3,0.2-0.6,0.4-0.6
			C52.5,191.6,52.7,191.9,52.7,192.2 M52.7,189.5c0,0.2-0.2,0.5-0.6,0.5c-0.2,0-0.4-0.2-0.4-0.5c0-0.3,0.2-0.6,0.4-0.6
			C52.5,188.9,52.7,189.2,52.7,189.5 M52.7,186.8c0,0.2-0.2,0.4-0.6,0.4c-0.2,0-0.4-0.2-0.4-0.4c0-0.3,0.2-0.6,0.4-0.6
			C52.5,186.2,52.7,186.5,52.7,186.8"/>
		<path class="st7" d="M52.7,213.4c0,0.3-0.2,0.6-0.6,0.6c-0.2,0-0.4-0.2-0.4-0.6c0-0.2,0.2-0.4,0.4-0.4
			C52.5,213,52.7,213.2,52.7,213.4 M52.7,210.7c0,0.3-0.2,0.6-0.6,0.6c-0.2,0-0.4-0.2-0.4-0.6c0-0.2,0.2-0.5,0.4-0.5
			C52.5,210.3,52.7,210.5,52.7,210.7 M52.7,208c0,0.3-0.2,0.6-0.6,0.6c-0.2,0-0.4-0.2-0.4-0.6c0-0.2,0.2-0.5,0.4-0.5
			C52.5,207.6,52.7,207.8,52.7,208 M52.7,205.3c0,0.3-0.2,0.6-0.6,0.6c-0.2,0-0.4-0.2-0.4-0.6c0-0.2,0.2-0.4,0.4-0.4
			C52.5,204.9,52.7,205.1,52.7,205.3 M52.7,202.7c0,0.2-0.2,0.5-0.6,0.5c-0.2,0-0.4-0.2-0.4-0.5c0-0.3,0.2-0.6,0.4-0.6
			C52.5,202.2,52.7,202.4,52.7,202.7"/>
		<path class="st7" d="M81.7,54.4c0,0.2-0.2,0.4-0.6,0.4c-0.2,0-0.4-0.2-0.4-0.4c0-0.3,0.2-0.6,0.4-0.6
			C81.4,53.8,81.7,54.1,81.7,54.4"/>
		<path class="st7" d="M79.7,54.4c0,0.2-0.2,0.4-0.6,0.4c-0.2,0-0.4-0.2-0.4-0.4c0-0.3,0.2-0.6,0.4-0.6
			C79.5,53.8,79.7,54.1,79.7,54.4"/>
		<path class="st7" d="M77.7,54.4c0,0.2-0.2,0.4-0.6,0.4c-0.2,0-0.4-0.2-0.4-0.4c0-0.3,0.2-0.6,0.4-0.6
			C77.5,53.8,77.7,54.1,77.7,54.4"/>
		<path class="st7" d="M75.8,54.4c0,0.2-0.2,0.4-0.6,0.4c-0.2,0-0.4-0.2-0.4-0.4c0-0.3,0.2-0.6,0.4-0.6
			C75.5,53.8,75.8,54.1,75.8,54.4"/>
		<path class="st7" d="M73.8,54.4c0,0.2-0.2,0.4-0.6,0.4c-0.2,0-0.4-0.2-0.4-0.4c0-0.3,0.2-0.6,0.4-0.6
			C73.6,53.8,73.8,54.1,73.8,54.4"/>
		
			<rect x="56.3" y="49.9" transform="matrix(0.7071 -0.7071 0.7071 0.7071 -19.3926 55.8586)" class="st8" width="2.9" height="2.9"/>
		<rect x="56.3" y="57.8" transform="matrix(0.7072 -0.707 0.707 0.7072 -24.9666 58.1583)" class="st8" width="2.9" height="2.9"/>
		
			<rect x="56.3" y="65.7" transform="matrix(0.7071 -0.7071 0.7071 0.7071 -30.5407 60.4754)" class="st8" width="2.9" height="2.9"/>
		
			<rect x="56.3" y="73.6" transform="matrix(0.7071 -0.7071 0.7071 0.7071 -36.1146 62.7841)" class="st8" width="2.9" height="2.9"/>
		
			<rect x="56.3" y="81.4" transform="matrix(0.7071 -0.7071 0.7071 0.7071 -41.6889 65.0941)" class="st8" width="2.9" height="2.9"/>
		<rect x="56.3" y="89.3" transform="matrix(0.707 -0.7072 0.7072 0.707 -47.2653 67.4134)" class="st8" width="2.9" height="2.9"/>
		
			<rect x="56.3" y="97.2" transform="matrix(0.7071 -0.7071 0.7071 0.7071 -52.8367 69.7105)" class="st8" width="2.9" height="2.9"/>
		
			<rect x="56.3" y="105.1" transform="matrix(0.7071 -0.7071 0.7071 0.7071 -58.4107 72.0193)" class="st8" width="2.9" height="2.9"/>
		<rect x="56.3" y="113" transform="matrix(0.7072 -0.707 0.707 0.7072 -63.9809 74.316)" class="st8" width="2.9" height="2.9"/>
		
			<rect x="56.3" y="120.9" transform="matrix(0.7072 -0.707 0.707 0.7072 -69.5543 76.6242)" class="st8" width="2.9" height="2.9"/>
		
			<rect x="56.3" y="128.7" transform="matrix(0.7071 -0.7071 0.7071 0.7071 -75.1334 78.9472)" class="st8" width="2.9" height="2.9"/>
		
			<rect x="56.3" y="136.6" transform="matrix(0.7071 -0.7071 0.7071 0.7071 -80.7068 81.2545)" class="st8" width="2.9" height="2.9"/>
		
			<rect x="56.3" y="144.5" transform="matrix(0.7073 -0.7069 0.7069 0.7073 -86.2678 83.533)" class="st8" width="2.9" height="2.9"/>
		
			<rect x="56.3" y="152.4" transform="matrix(0.7071 -0.7071 0.7071 0.7071 -91.855 85.8722)" class="st8" width="2.9" height="2.9"/>
		
			<rect x="56.3" y="160.3" transform="matrix(0.7072 -0.707 0.707 0.7072 -97.4216 88.1654)" class="st8" width="2.9" height="2.9"/>
		
			<rect x="56.3" y="168.1" transform="matrix(0.7073 -0.7069 0.7069 0.7073 -102.9776 90.438)" class="st8" width="2.9" height="2.9"/>
		
			<rect x="56.3" y="176" transform="matrix(0.7073 -0.7069 0.7069 0.7073 -108.5593 92.7635)" class="st8" width="2.9" height="2.9"/>
		
			<rect x="56.3" y="183.9" transform="matrix(0.7073 -0.7069 0.7069 0.7073 -114.132 95.071)" class="st8" width="2.9" height="2.9"/>
		
			<rect x="56.3" y="191.8" transform="matrix(0.7074 -0.7068 0.7068 0.7074 -119.6836 97.3393)" class="st8" width="2.9" height="2.9"/>
		
			<rect x="56.3" y="199.7" transform="matrix(0.7071 -0.7071 0.7071 0.7071 -125.2991 99.7249)" class="st8" width="2.9" height="2.9"/>
		
			<rect x="56.3" y="207.6" transform="matrix(0.7073 -0.7069 0.7069 0.7073 -130.8506 101.994)" class="st8" width="2.9" height="2.9"/>
		<path class="st7" d="M71.8,54.4c0,0.2-0.2,0.4-0.6,0.4c-0.2,0-0.4-0.2-0.4-0.4c0-0.3,0.2-0.6,0.4-0.6
			C71.6,53.8,71.8,54.1,71.8,54.4"/>
		<path class="st7" d="M69.8,54.4c0,0.2-0.2,0.4-0.6,0.4c-0.2,0-0.4-0.2-0.4-0.4c0-0.3,0.2-0.6,0.4-0.6
			C69.6,53.8,69.8,54.1,69.8,54.4"/>
		<path class="st7" d="M67.9,54.4c0,0.2-0.2,0.4-0.6,0.4c-0.2,0-0.4-0.2-0.4-0.4c0-0.3,0.2-0.6,0.4-0.6
			C67.6,53.8,67.9,54.1,67.9,54.4"/>
		<g>
			<defs>
				<path id="SVGID_19_" d="M67.3,64.8v58.3h10.9c4.5,0,7.9-1.2,10.1-3.5c2.2-2.3,3.3-6.2,3.3-11.4V79.7c0-5.1-1-8.9-3.1-11.3
					C86.5,66,83,64.8,78,64.8H67.3z"/>
			</defs>
			<clipPath id="SVGID_20_">
				<use xlink:href="#SVGID_19_"  style="overflow:visible;"/>
			</clipPath>
			
				<linearGradient id="SVGID_21_" gradientUnits="userSpaceOnUse" x1="-537.8815" y1="1518.2727" x2="-537.4309" y2="1518.2727" gradientTransform="matrix(0 129.2974 -129.2974 0 196388.2031 69611.5078)">
				<stop  offset="0" style="stop-color:#F8E452"/>
				<stop  offset="7.389160e-02" style="stop-color:#F8E452"/>
				<stop  offset="0.417" style="stop-color:#F6BC61"/>
				<stop  offset="1" style="stop-color:#F16F7C"/>
			</linearGradient>
			<rect x="67.3" y="64.8" class="st9" width="24.3" height="58.3"/>
		</g>
		<g>
			<defs>
				<path id="SVGID_22_" d="M77.5,112.9c-0.3,1.1,0.3,2.2,1.4,2.5c1.1,0.3,2.2-0.3,2.5-1.4c0.3-1.1-0.3-2.2-1.4-2.5
					c-0.2-0.1-0.4-0.1-0.6-0.1C78.5,111.4,77.7,112,77.5,112.9"/>
			</defs>
			<clipPath id="SVGID_23_">
				<use xlink:href="#SVGID_22_"  style="overflow:visible;"/>
			</clipPath>
			
				<radialGradient id="SVGID_24_" cx="-645.1315" cy="1567.0369" r="0.4507" gradientTransform="matrix(4.2566 1.2521 -1.2521 4.2566 4787.543 -5749.062)" gradientUnits="userSpaceOnUse">
				<stop  offset="0" style="stop-color:#F8E452"/>
				<stop  offset="7.389160e-02" style="stop-color:#F8E452"/>
				<stop  offset="0.3387" style="stop-color:#F6E454"/>
				<stop  offset="0.4919" style="stop-color:#EDE25C"/>
				<stop  offset="0.6166" style="stop-color:#DFDF68"/>
				<stop  offset="0.7261" style="stop-color:#CBDB7A"/>
				<stop  offset="0.8254" style="stop-color:#B2D691"/>
				<stop  offset="0.9162" style="stop-color:#92D0AD"/>
				<stop  offset="1" style="stop-color:#6EC9CD"/>
			</radialGradient>
			<polygon class="st10" points="76,115.3 81.3,116.9 82.8,111.8 77.5,110.2 			"/>
		</g>
		<path class="st7" d="M85.9,138.1c-0.3-0.1-0.5-0.5-0.4-0.8c0.5-1.6,0.2-3.4-0.9-4.6c-1.2-1.4-1.7-3.3-1.4-5.1
			c0.1-0.7,0.1-1.4-0.1-2.1c-0.2-0.7-0.5-1.3-1-1.8c-1.2-1.4-1.7-3.3-1.4-5.1c0.3-1.7-0.3-3.4-1.6-4.5c-0.3-0.2-0.3-0.7-0.1-0.9
			c0.2-0.3,0.7-0.3,0.9-0.1c1.6,1.4,2.4,3.6,2,5.7c-0.3,1.4,0.1,2.9,1.1,4l0,0c0.6,0.7,1,1.5,1.3,2.4c0.2,0.9,0.3,1.8,0.1,2.7l0,0
			c-0.3,1.4,0.1,2.9,1.1,4c1.4,1.6,1.9,3.9,1.2,5.9C86.7,138,86.3,138.2,85.9,138.1"/>
		<g>
			<defs>
				<path id="SVGID_25_" d="M73,78.6c-0.2,1.1,0.6,2.1,1.6,2.3c1.1,0.2,2.1-0.6,2.3-1.6c0.2-1.1-0.6-2.1-1.6-2.3c-0.1,0-0.2,0-0.3,0
					C74,77,73.2,77.7,73,78.6"/>
			</defs>
			<clipPath id="SVGID_26_">
				<use xlink:href="#SVGID_25_"  style="overflow:visible;"/>
			</clipPath>
			
				<radialGradient id="SVGID_27_" cx="-430.0443" cy="1465.6062" r="0.4507" gradientTransform="matrix(-4.3777 -0.7274 0.7274 -4.3777 -2873.6824 6182.1318)" gradientUnits="userSpaceOnUse">
				<stop  offset="0" style="stop-color:#F8E452"/>
				<stop  offset="7.389160e-02" style="stop-color:#F8E452"/>
				<stop  offset="0.3387" style="stop-color:#F6E454"/>
				<stop  offset="0.4919" style="stop-color:#EDE25C"/>
				<stop  offset="0.6166" style="stop-color:#DFDF68"/>
				<stop  offset="0.7261" style="stop-color:#CBDB7A"/>
				<stop  offset="0.8254" style="stop-color:#B2D691"/>
				<stop  offset="0.9162" style="stop-color:#92D0AD"/>
				<stop  offset="1" style="stop-color:#6EC9CD"/>
			</radialGradient>
			<polygon class="st11" points="77.8,77.1 73,76.3 72.2,81 77,81.8 			"/>
		</g>
		<path class="st7" d="M75.1,78.4c-1.4-0.9-2.2-2.6-2.1-4.3c0.1-1.8-0.6-3.7-2-4.9c-0.5-0.5-0.9-1.1-1.2-1.7
			c-0.3-0.6-0.4-1.3-0.3-2.1c0.1-1.8-0.6-3.7-2-4.9c-0.5-0.5-1-1.1-1.3-1.7c-0.2-0.7-0.3-1.4-0.2-2.2c0.1-1.8-0.6-3.7-2-4.9
			c-0.5-0.5-0.9-1.1-1.2-1.7c-0.3-0.6-0.4-1.3-0.3-2.1c0.1-1.8-0.6-3.7-2-4.9c-1.3-1.1-1.8-2.9-1.5-4.5c0.1-0.4-0.2-0.7-0.5-0.8
			c-0.4-0.1-0.7,0.2-0.8,0.5c-0.4,2.1,0.3,4.3,1.9,5.8c1.1,1,1.6,2.4,1.6,3.8l0,0c-0.1,0.9,0.1,1.8,0.4,2.7c0.3,0.8,0.9,1.6,1.6,2.2
			l0,0c1.1,1,1.6,2.4,1.5,3.8c-0.1,1.5,0.4,2.9,1.2,4.1c0.2,0.3,0.4,0.6,0.7,0.8c1.1,1,1.6,2.4,1.6,3.8l0,0
			c-0.1,0.9,0.1,1.8,0.4,2.7c0.3,0.8,0.9,1.6,1.6,2.2l0,0c1.1,1,1.6,2.4,1.5,3.8c-0.1,2.2,0.9,4.2,2.7,5.4c0.3,0.2,0.7,0.1,0.9-0.2
			C75.5,79,75.4,78.6,75.1,78.4"/>
		<path class="st1" d="M93.8,81.9c0-5.1-1-8.9-3.1-11.3c-2.1-2.4-5.6-3.6-10.5-3.6H69.5v58.3h10.9c4.5,0,7.9-1.2,10.1-3.5
			c2.2-2.4,3.3-6.2,3.3-11.4V81.9z"/>
	</g>
	<g>
		<g>
			<defs>
				<path id="SVGID_28_" d="M114.8,209.2c0,3.7,3,6.6,6.6,6.6c3.7,0,6.6-3,6.6-6.6c0-3.7-3-6.6-6.6-6.6
					C117.8,202.6,114.8,205.6,114.8,209.2"/>
			</defs>
			<clipPath id="SVGID_29_">
				<use xlink:href="#SVGID_28_"  style="overflow:visible;"/>
			</clipPath>
			
				<linearGradient id="SVGID_30_" gradientUnits="userSpaceOnUse" x1="-545.9084" y1="1531.8938" x2="-545.4242" y2="1531.8938" gradientTransform="matrix(27.3425 0 0 27.3425 15041.3057 -41676.5742)">
				<stop  offset="0" style="stop-color:#8074B4"/>
				<stop  offset="7.389160e-02" style="stop-color:#8074B4"/>
				<stop  offset="0.2161" style="stop-color:#8A74AF"/>
				<stop  offset="0.461" style="stop-color:#A672A1"/>
				<stop  offset="0.7772" style="stop-color:#D3708B"/>
				<stop  offset="0.965" style="stop-color:#F16F7C"/>
				<stop  offset="1" style="stop-color:#F16F7C"/>
			</linearGradient>
			<rect x="114.8" y="202.6" class="st12" width="13.2" height="13.2"/>
		</g>
		<g>
			<defs>
				<path id="SVGID_31_" d="M119,209.2c0,1.3,1.1,2.4,2.4,2.4c1.3,0,2.4-1.1,2.4-2.4c0-1.3-1.1-2.4-2.4-2.4
					C120.1,206.8,119,207.9,119,209.2"/>
			</defs>
			<clipPath id="SVGID_32_">
				<use xlink:href="#SVGID_31_"  style="overflow:visible;"/>
			</clipPath>
			
				<linearGradient id="SVGID_33_" gradientUnits="userSpaceOnUse" x1="-558.3908" y1="1562.8115" x2="-557.9064" y2="1562.8115" gradientTransform="matrix(9.9268 0 0 9.9268 5662.0547 -15304.4863)">
				<stop  offset="0" style="stop-color:#F8E452"/>
				<stop  offset="7.389160e-02" style="stop-color:#F8E452"/>
				<stop  offset="0.1643" style="stop-color:#EEE159"/>
				<stop  offset="0.3207" style="stop-color:#D1D96C"/>
				<stop  offset="0.5243" style="stop-color:#A4CD8A"/>
				<stop  offset="0.7642" style="stop-color:#65BCB4"/>
				<stop  offset="1" style="stop-color:#21A9E1"/>
			</linearGradient>
			<rect x="119" y="206.8" class="st13" width="4.8" height="4.8"/>
		</g>
		<line class="st14" x1="121.4" y1="209.2" x2="139" y2="215.2"/>
		<g>
			<defs>
				<path id="SVGID_34_" d="M129,201c-0.8,7-4.4,10.6-10.6,10.6c-4.9,0-8.4-0.5-10.6-1.5v16.8c2.1,1,5.6,1.5,10.6,1.5
					c9,0,15.8-2.5,20.5-7.4c4.2-4.4,6.5-11,7-19.9H129z"/>
			</defs>
			<clipPath id="SVGID_35_">
				<use xlink:href="#SVGID_34_"  style="overflow:visible;"/>
			</clipPath>
			
				<linearGradient id="SVGID_36_" gradientUnits="userSpaceOnUse" x1="-541.3323" y1="1520.3047" x2="-540.848" y2="1520.3047" gradientTransform="matrix(78.9125 0 0 78.9125 42825.7109 -119756.3516)">
				<stop  offset="0" style="stop-color:#D79AC4"/>
				<stop  offset="4.838710e-02" style="stop-color:#DB94C0"/>
				<stop  offset="1" style="stop-color:#ED3324"/>
			</linearGradient>
			<rect x="107.8" y="201" class="st15" width="38.1" height="27.3"/>
		</g>
		<g>
			<defs>
				<path id="SVGID_37_" d="M108.1,210.1c-1.6,0.1-2.8,3.8-2.8,8.4c0,4.6,1.3,8.4,2.9,8.4c1.6,0,2.9-3.8,2.9-8.4
					c0-4.6-1.3-8.3-2.8-8.4H108.1z"/>
			</defs>
			<clipPath id="SVGID_38_">
				<use xlink:href="#SVGID_37_"  style="overflow:visible;"/>
			</clipPath>
			
				<linearGradient id="SVGID_39_" gradientUnits="userSpaceOnUse" x1="-553.9262" y1="1553.9696" x2="-553.442" y2="1553.9696" gradientTransform="matrix(11.8999 0 0 11.8999 6696.9668 -18273.5527)">
				<stop  offset="0" style="stop-color:#D79AC4"/>
				<stop  offset="4.838710e-02" style="stop-color:#DB94C0"/>
				<stop  offset="1" style="stop-color:#ED3324"/>
			</linearGradient>
			<rect x="105.3" y="210.1" class="st16" width="5.8" height="16.8"/>
		</g>
		<path class="st7" d="M109.2,216.6l-0.1,0.1c-0.4,0.4-0.9,0.5-1.4,0.5c-0.7,0-1.3-0.4-1.4-0.5c-1.1-0.7-2.1-1.1-3.3-1.1
			c-0.4,0-0.9,0.1-1.3,0.2c-1.2,0.3-1.9,1-1.9,1l-0.1,0.1l0.8,0.6l0.1-0.1c0,0,0.9-0.8,2.4-0.8c0.9,0,1.7,0.3,2.6,0.9
			c0.4,0.3,1.2,0.7,2.1,0.7c0.8,0,1.5-0.3,2.2-0.8l0.1-0.1L109.2,216.6z"/>
		<path class="st7" d="M109.5,220.9L109.5,220.9c-0.5,0.4-0.9,0.6-1.3,0.6c-0.7,0-1.2-0.4-1.2-0.4c-0.9-0.7-1.8-1-2.7-1
			c-0.4,0-0.7,0.1-1.1,0.2c-0.8,0.3-1.4,0.8-1.5,0.9l-0.1,0.1l0.7,0.6l0.1-0.1c0,0,0.8-0.8,2-0.8c0.7,0,1.4,0.3,2.1,0.8
			c0.4,0.3,1,0.7,1.8,0.7c0.7,0,1.3-0.3,1.8-0.8l0.1-0.1L109.5,220.9z"/>
		<path class="st7" d="M102.5,221.5c0,0.3-0.2,0.5-0.5,0.5c-0.3,0-0.5-0.2-0.5-0.5c0-0.3,0.2-0.5,0.5-0.5
			C102.3,221,102.5,221.2,102.5,221.5"/>
		<g>
			<defs>
				<path id="SVGID_40_" d="M134.1,215.9c0,3.7,3,6.6,6.6,6.6c3.6,0,6.6-2.9,6.6-6.5v-0.3c-0.1-3.6-3-6.5-6.6-6.5
					C137,209.2,134.1,212.2,134.1,215.9"/>
			</defs>
			<clipPath id="SVGID_41_">
				<use xlink:href="#SVGID_40_"  style="overflow:visible;"/>
			</clipPath>
			
				<linearGradient id="SVGID_42_" gradientUnits="userSpaceOnUse" x1="-546.6594" y1="1531.6405" x2="-546.175" y2="1531.6405" gradientTransform="matrix(27.3425 0 0 27.3425 15081.1025 -41663.0273)">
				<stop  offset="0" style="stop-color:#8074B4"/>
				<stop  offset="7.389160e-02" style="stop-color:#8074B4"/>
				<stop  offset="0.2161" style="stop-color:#8A74AF"/>
				<stop  offset="0.461" style="stop-color:#A672A1"/>
				<stop  offset="0.7772" style="stop-color:#D3708B"/>
				<stop  offset="0.965" style="stop-color:#F16F7C"/>
				<stop  offset="1" style="stop-color:#F16F7C"/>
			</linearGradient>
			<rect x="134.1" y="209.2" class="st17" width="13.2" height="13.2"/>
		</g>
		<g>
			<defs>
				<path id="SVGID_43_" d="M138.2,215.9c0,1.6,1.3,3,3,3c1.6,0,3-1.3,3-3c0-1.6-1.3-3-3-3C139.5,212.9,138.2,214.2,138.2,215.9"/>
			</defs>
			<clipPath id="SVGID_44_">
				<use xlink:href="#SVGID_43_"  style="overflow:visible;"/>
			</clipPath>
			
				<linearGradient id="SVGID_45_" gradientUnits="userSpaceOnUse" x1="-556.3134" y1="1552.8816" x2="-555.8292" y2="1552.8816" gradientTransform="matrix(12.2992 0 0 12.2992 6980.3843 -18883.3496)">
				<stop  offset="0" style="stop-color:#F8E452"/>
				<stop  offset="7.389160e-02" style="stop-color:#F8E452"/>
				<stop  offset="0.1643" style="stop-color:#EEE159"/>
				<stop  offset="0.3207" style="stop-color:#D1D96C"/>
				<stop  offset="0.5243" style="stop-color:#A4CD8A"/>
				<stop  offset="0.7642" style="stop-color:#65BCB4"/>
				<stop  offset="1" style="stop-color:#21A9E1"/>
			</linearGradient>
			<rect x="138.2" y="212.9" class="st18" width="6" height="6"/>
		</g>
		<path class="st7" d="M100.7,217.1c0,0.3-0.2,0.5-0.5,0.5c-0.3,0-0.5-0.2-0.5-0.5c0-0.3,0.2-0.5,0.5-0.5
			C100.5,216.6,100.7,216.8,100.7,217.1"/>
		<g>
			<defs>
				<path id="SVGID_46_" d="M129,201c0,1.7,3.8,3,8.5,3c4.7,0,8.5-1.4,8.5-3s-3.8-3-8.5-3C132.8,198,129,199.3,129,201"/>
			</defs>
			<clipPath id="SVGID_47_">
				<use xlink:href="#SVGID_46_"  style="overflow:visible;"/>
			</clipPath>
			
				<linearGradient id="SVGID_48_" gradientUnits="userSpaceOnUse" x1="-499.6317" y1="1531.1575" x2="-499.1475" y2="1531.1575" gradientTransform="matrix(0 12.5334 -12.5334 0 19328.1289 6460.0728)">
				<stop  offset="0" style="stop-color:#8074B4"/>
				<stop  offset="7.389160e-02" style="stop-color:#8074B4"/>
				<stop  offset="0.2161" style="stop-color:#8A74AF"/>
				<stop  offset="0.461" style="stop-color:#A672A1"/>
				<stop  offset="0.7772" style="stop-color:#D3708B"/>
				<stop  offset="0.965" style="stop-color:#F16F7C"/>
				<stop  offset="1" style="stop-color:#F16F7C"/>
			</linearGradient>
			<rect x="129" y="198" class="st19" width="17" height="6.1"/>
		</g>
		<g>
			<defs>
				<path id="SVGID_49_" d="M141,47.4c0.3,1.4,0.1,3.2-1.5,5.2c-1,1.1-2.1,3.8,0.2,6.3l0,0c0.7,0.7,3,3.8-0.2,7.8
					c-0.9,1.1-2.1,3.7,0.1,6.1l0,0c0,0,0,0,0.1,0.1c0,0,0.1,0.1,0.1,0.1l0,0c0.6,0.7,3,3.8-0.2,7.8c-0.9,1.1-2.1,3.7,0.1,6.1l0,0
					c0.1,0.1,3.5,3.5,0,8c-0.9,1.1-2.1,3.7,0,6.1h0c0,0,0,0,0,0c0,0.1,0.1,0.1,0.1,0.2l0,0c0.7,0.7,3,3.8-0.2,7.8
					c-0.9,1.1-2.1,3.7,0,6.1l0,0c0,0,0,0,0,0c0,0.1,0.1,0.1,0.1,0.2l0,0c0.7,0.7,3,3.8-0.2,7.8c-0.9,1.1-2.1,3.7,0,6.1l0,0
					c0,0,0,0,0,0c0,0.1,0.1,0.1,0.1,0.2l0,0c0.7,0.7,3,3.8-0.2,7.8c-0.9,1.1-2.1,3.7,0.1,6.2l0,0c0.1,0.1,3.5,3.5,0,8
					c-0.9,1.1-2.1,3.7,0,6.1l0,0c0,0,0,0,0,0c0,0,0.1,0.1,0.1,0.1l0,0c0.7,0.7,3,3.8-0.2,7.8c-1,1.1-2.1,3.8,0.2,6.3l0,0
					c0.7,0.7,3,3.8-0.2,7.8c-1,1.1-2.1,3.8,0.2,6.3l0,0c0.7,0.7,3,3.8-0.2,7.8c-0.9,1.1-2.1,3.7,0.1,6.1l0,0c0.1,0.1,1.6,1.6,1.6,4
					c0.4-0.1,0.8-0.2,1.2-0.3c0-0.7-0.1-1.3-0.3-1.8c-0.4-1.3-1.1-2.2-1.4-2.6l0,0c-2.2-2.3-0.2-4.6-0.2-4.7l0,0
					c1.4-1.8,1.9-3.5,1.9-4.9c0-0.7-0.1-1.4-0.3-1.9c-0.5-1.6-1.4-2.5-1.6-2.7c-1.9-2.2-0.1-4.4,0-4.5l0,0c1.4-1.8,1.9-3.5,1.9-4.9
					c0-0.7-0.1-1.4-0.3-1.9c-0.5-1.5-1.4-2.5-1.6-2.7c-1.9-2.3-0.1-4.4,0-4.5l0,0c1.4-1.8,1.9-3.5,1.9-4.9c0-0.7-0.1-1.4-0.3-1.9
					c-0.4-1.4-1.2-2.3-1.5-2.7c-2-2.3-0.2-4.5-0.1-4.6l0,0c1.4-1.8,1.9-3.5,1.9-4.9c0-0.7-0.1-1.4-0.3-1.9c-0.4-1.3-1.1-2.2-1.5-2.6
					l0,0c-2.2-2.3-0.2-4.6-0.2-4.7l0,0c1.4-1.8,1.9-3.5,1.9-4.9c0-0.7-0.1-1.4-0.3-1.9c-0.5-1.4-1.3-2.4-1.6-2.7
					c-2-2.3-0.1-4.5-0.1-4.6l0,0c1.4-1.8,1.9-3.5,1.9-4.9c0-0.7-0.1-1.4-0.3-1.9c-0.5-1.4-1.3-2.4-1.6-2.7c-2-2.3-0.1-4.5-0.1-4.6
					l0,0c1.4-1.8,1.9-3.5,1.9-4.9c0-0.7-0.1-1.4-0.3-1.9c-0.5-1.4-1.3-2.4-1.6-2.7c-2-2.3-0.1-4.5-0.1-4.6l0,0
					c1.4-1.8,1.9-3.5,1.9-4.9c0-0.7-0.1-1.4-0.3-1.9c-0.4-1.3-1.1-2.2-1.5-2.6l0,0c-2.2-2.3-0.2-4.6-0.2-4.7l0,0
					c1.4-1.8,1.9-3.5,1.9-4.9c0-0.7-0.1-1.4-0.3-1.9c-0.4-1.4-1.2-2.3-1.5-2.6c-2.1-2.3-0.2-4.5-0.1-4.6l0,0
					c1.4-1.8,1.9-3.5,1.9-4.9c0-0.7-0.1-1.4-0.3-1.9c-0.5-1.5-1.4-2.5-1.6-2.7c-1.9-2.3-0.1-4.4,0-4.5l0,0c1.4-1.8,1.9-3.5,1.9-4.9
					c0-0.4,0-0.7-0.1-1.1H141z"/>
			</defs>
			<clipPath id="SVGID_50_">
				<use xlink:href="#SVGID_49_"  style="overflow:visible;"/>
			</clipPath>
			
				<linearGradient id="SVGID_51_" gradientUnits="userSpaceOnUse" x1="-564.9034" y1="1583.6512" x2="-564.4192" y2="1583.6512" gradientTransform="matrix(8.2266 0 0 8.2266 4785.5791 -12902.4697)">
				<stop  offset="0" style="stop-color:#8074B4"/>
				<stop  offset="7.389160e-02" style="stop-color:#8074B4"/>
				<stop  offset="0.2161" style="stop-color:#8A74AF"/>
				<stop  offset="0.461" style="stop-color:#A672A1"/>
				<stop  offset="0.7772" style="stop-color:#D3708B"/>
				<stop  offset="0.965" style="stop-color:#F16F7C"/>
				<stop  offset="1" style="stop-color:#F16F7C"/>
			</linearGradient>
			<rect x="137.4" y="47.4" class="st20" width="5.7" height="156.4"/>
		</g>
		<g>
			<defs>
				<path id="SVGID_52_" d="M135.7,47.4c0.3,1.4,0.1,3.2-1.5,5.2c-1,1.1-2.1,3.8,0.2,6.3l0,0c0.7,0.7,3,3.8-0.2,7.8
					c-0.9,1.1-2.1,3.7,0.1,6.1l0,0c0,0,0,0,0.1,0.1c0,0,0.1,0.1,0.1,0.1l0,0c0.6,0.7,3,3.8-0.2,7.8c-0.9,1.1-2.1,3.7,0.1,6.1l0,0
					c0.1,0.1,3.5,3.5,0,8c-0.9,1.1-2.1,3.7,0,6.1h0c0,0,0,0,0,0c0,0.1,0.1,0.1,0.1,0.2l0,0c0.7,0.7,3,3.8-0.2,7.8
					c-0.9,1.1-2.1,3.7,0,6.1l0,0c0,0,0,0,0,0c0,0.1,0.1,0.1,0.1,0.2l0,0c0.7,0.7,3,3.8-0.2,7.8c-0.9,1.1-2.1,3.7,0,6.1l0,0
					c0,0,0,0,0,0c0,0.1,0.1,0.1,0.1,0.2l0,0c0.7,0.7,3,3.8-0.2,7.8c-0.9,1.1-2.1,3.7,0.1,6.2l0,0c0.1,0.1,3.5,3.5,0,8
					c-0.9,1.1-2.1,3.7,0,6.1l0,0c0,0,0,0,0,0c0,0,0.1,0.1,0.1,0.1l0,0c0.7,0.7,3,3.8-0.2,7.8c-1,1.1-2.1,3.8,0.2,6.3l0,0
					c0.7,0.7,3,3.8-0.2,7.8c-1,1.1-2.1,3.8,0.2,6.3l0,0c0.7,0.7,3,3.8-0.2,7.8c-0.9,1.1-2.1,3.7,0.1,6.1l0,0
					c0.1,0.1,1.7,1.7,1.6,4.2c0.4,0,0.8,0,1.2,0.1c0-0.1,0-0.3,0-0.4c0-0.7-0.1-1.4-0.3-1.9c-0.4-1.3-1.1-2.2-1.4-2.6l0,0
					c-2.2-2.3-0.2-4.6-0.2-4.7l0,0c1.4-1.8,1.9-3.5,1.9-4.9c0-0.7-0.1-1.4-0.3-1.9c-0.5-1.6-1.4-2.5-1.6-2.7c-1.9-2.2-0.1-4.4,0-4.5
					l0,0c1.4-1.8,1.9-3.5,1.9-4.9c0-0.7-0.1-1.4-0.3-1.9c-0.5-1.5-1.4-2.5-1.6-2.7c-1.9-2.3-0.1-4.4,0-4.5l0,0
					c1.4-1.8,1.9-3.5,1.9-4.9c0-0.7-0.1-1.4-0.3-1.9c-0.4-1.4-1.2-2.3-1.5-2.7c-2-2.3-0.2-4.5-0.1-4.6l0,0c1.4-1.8,1.9-3.5,1.9-4.9
					c0-0.7-0.1-1.4-0.3-1.9c-0.4-1.3-1.1-2.2-1.5-2.6l0,0c-2.2-2.3-0.2-4.6-0.2-4.7l0,0c1.4-1.8,1.9-3.5,1.9-4.9
					c0-0.7-0.1-1.4-0.3-1.9c-0.5-1.4-1.3-2.4-1.6-2.7c-2-2.3-0.1-4.5-0.1-4.6l0,0c1.4-1.8,1.9-3.5,1.9-4.9c0-0.7-0.1-1.4-0.3-1.9
					c-0.5-1.4-1.3-2.4-1.6-2.7c-2-2.3-0.1-4.5-0.1-4.6l0,0c1.4-1.8,1.9-3.5,1.9-4.9c0-0.7-0.1-1.4-0.3-1.9c-0.5-1.4-1.3-2.4-1.6-2.7
					c-2-2.3-0.1-4.5-0.1-4.6l0,0c1.4-1.8,1.9-3.5,1.9-4.9c0-0.7-0.1-1.4-0.3-1.9c-0.4-1.3-1.1-2.2-1.5-2.6l0,0
					c-2.2-2.3-0.2-4.6-0.2-4.7l0,0c1.4-1.8,1.9-3.5,1.9-4.9c0-0.7-0.1-1.4-0.3-1.9c-0.4-1.4-1.2-2.3-1.5-2.6
					c-2.1-2.3-0.2-4.5-0.1-4.6l0,0c1.4-1.8,1.9-3.5,1.9-4.9c0-0.7-0.1-1.4-0.3-1.9c-0.5-1.5-1.4-2.5-1.6-2.7c-1.9-2.3-0.1-4.4,0-4.5
					l0,0c1.4-1.8,1.9-3.5,1.9-4.9c0-0.4,0-0.7-0.1-1.1H135.7z"/>
			</defs>
			<clipPath id="SVGID_53_">
				<use xlink:href="#SVGID_52_"  style="overflow:visible;"/>
			</clipPath>
			
				<linearGradient id="SVGID_54_" gradientUnits="userSpaceOnUse" x1="-564.2168" y1="1583.6395" x2="-563.7325" y2="1583.6395" gradientTransform="matrix(8.2257 0 0 8.2257 4774.0771 -12900.8184)">
				<stop  offset="0" style="stop-color:#8074B4"/>
				<stop  offset="7.389160e-02" style="stop-color:#8074B4"/>
				<stop  offset="0.2161" style="stop-color:#8A74AF"/>
				<stop  offset="0.461" style="stop-color:#A672A1"/>
				<stop  offset="0.7772" style="stop-color:#D3708B"/>
				<stop  offset="0.965" style="stop-color:#F16F7C"/>
				<stop  offset="1" style="stop-color:#F16F7C"/>
			</linearGradient>
			<rect x="132" y="47.4" class="st21" width="5.7" height="156.6"/>
		</g>
		<g>
			<defs>
				<path id="SVGID_55_" d="M129.8,194.8c0-1,3-2.5,7.8-2.5c4.9,0,7.8,1.5,7.8,2.5c0,1-3,2.5-7.8,2.5
					C132.8,197.3,129.8,195.9,129.8,194.8 M128.7,194.8c0,2.4,4.6,3.6,9,3.6c4.3,0,9-1.3,9-3.6c0-2.4-4.6-3.6-9-3.6
					C133.3,191.2,128.7,192.5,128.7,194.8"/>
			</defs>
			<clipPath id="SVGID_56_">
				<use xlink:href="#SVGID_55_"  style="overflow:visible;"/>
			</clipPath>
			
				<linearGradient id="SVGID_57_" gradientUnits="userSpaceOnUse" x1="-505.5613" y1="1528.4005" x2="-505.077" y2="1528.4005" gradientTransform="matrix(0 14.9576 -14.9576 0 22998.8418 7753.1919)">
				<stop  offset="0" style="stop-color:#F8E452"/>
				<stop  offset="7.389160e-02" style="stop-color:#F8E452"/>
				<stop  offset="0.2121" style="stop-color:#F7DA56"/>
				<stop  offset="0.4498" style="stop-color:#F6BE60"/>
				<stop  offset="0.7563" style="stop-color:#F39170"/>
				<stop  offset="0.965" style="stop-color:#F16F7C"/>
				<stop  offset="1" style="stop-color:#F16F7C"/>
			</linearGradient>
			<rect x="128.7" y="191.2" class="st22" width="17.9" height="7.2"/>
		</g>
		<g>
			<defs>
				<path id="SVGID_58_" d="M129.8,188.7c0-1,3-2.5,7.8-2.5c4.9,0,7.8,1.5,7.8,2.5c0,1-3,2.5-7.8,2.5
					C132.8,191.2,129.8,189.8,129.8,188.7 M128.7,188.7c0,2.4,4.6,3.6,9,3.6c4.3,0,9-1.3,9-3.6c0-2.4-4.6-3.6-9-3.6
					C133.3,185.1,128.7,186.4,128.7,188.7"/>
			</defs>
			<clipPath id="SVGID_59_">
				<use xlink:href="#SVGID_58_"  style="overflow:visible;"/>
			</clipPath>
			
				<linearGradient id="SVGID_60_" gradientUnits="userSpaceOnUse" x1="-505.0879" y1="1528.4424" x2="-504.6036" y2="1528.4424" gradientTransform="matrix(0 14.9542 -14.9542 0 22994.2695 7738.2808)">
				<stop  offset="0" style="stop-color:#F8E452"/>
				<stop  offset="7.389160e-02" style="stop-color:#F8E452"/>
				<stop  offset="0.2121" style="stop-color:#F7DA56"/>
				<stop  offset="0.4498" style="stop-color:#F6BE60"/>
				<stop  offset="0.7563" style="stop-color:#F39170"/>
				<stop  offset="0.965" style="stop-color:#F16F7C"/>
				<stop  offset="1" style="stop-color:#F16F7C"/>
			</linearGradient>
			<rect x="128.7" y="185.1" class="st23" width="17.9" height="7.2"/>
		</g>
		<g>
			<defs>
				<path id="SVGID_61_" d="M129.8,182.6c0-1,3-2.5,7.8-2.5c4.9,0,7.8,1.5,7.8,2.5c0,1-3,2.5-7.8,2.5
					C132.8,185.1,129.8,183.6,129.8,182.6 M128.7,182.6c0,2.4,4.6,3.6,9,3.6c4.3,0,9-1.3,9-3.6c0-2.4-4.6-3.6-9-3.6
					C133.3,179,128.7,180.2,128.7,182.6"/>
			</defs>
			<clipPath id="SVGID_62_">
				<use xlink:href="#SVGID_61_"  style="overflow:visible;"/>
			</clipPath>
			
				<linearGradient id="SVGID_63_" gradientUnits="userSpaceOnUse" x1="-504.6785" y1="1528.4099" x2="-504.1943" y2="1528.4099" gradientTransform="matrix(0 14.9554 -14.9554 0 22995.6191 7726.6504)">
				<stop  offset="0" style="stop-color:#8074B4"/>
				<stop  offset="7.389160e-02" style="stop-color:#8074B4"/>
				<stop  offset="0.2161" style="stop-color:#8A74AF"/>
				<stop  offset="0.461" style="stop-color:#A672A1"/>
				<stop  offset="0.7772" style="stop-color:#D3708B"/>
				<stop  offset="0.965" style="stop-color:#F16F7C"/>
				<stop  offset="1" style="stop-color:#F16F7C"/>
			</linearGradient>
			<rect x="128.7" y="179" class="st24" width="17.9" height="7.2"/>
		</g>
		<g>
			<defs>
				<path id="SVGID_64_" d="M129.8,176.5c0-1,3-2.5,7.8-2.5c4.9,0,7.8,1.5,7.8,2.5c0,1-3,2.5-7.8,2.5
					C132.8,179,129.8,177.5,129.8,176.5 M137.4,172.9c-4.3,0-8.8,1.3-8.8,3.6c0,2.4,4.6,3.6,9,3.6c4.3,0,9-1.3,9-3.6
					c0-2.3-4.5-3.6-8.8-3.6H137.4z"/>
			</defs>
			<clipPath id="SVGID_65_">
				<use xlink:href="#SVGID_64_"  style="overflow:visible;"/>
			</clipPath>
			
				<linearGradient id="SVGID_66_" gradientUnits="userSpaceOnUse" x1="-504.2553" y1="1528.4005" x2="-503.7711" y2="1528.4005" gradientTransform="matrix(0 14.9576 -14.9576 0 22998.8418 7715.3169)">
				<stop  offset="0" style="stop-color:#F8E452"/>
				<stop  offset="7.389160e-02" style="stop-color:#F8E452"/>
				<stop  offset="0.2121" style="stop-color:#F7DA56"/>
				<stop  offset="0.4498" style="stop-color:#F6BE60"/>
				<stop  offset="0.7563" style="stop-color:#F39170"/>
				<stop  offset="0.965" style="stop-color:#F16F7C"/>
				<stop  offset="1" style="stop-color:#F16F7C"/>
			</linearGradient>
			<rect x="128.7" y="172.9" class="st25" width="17.9" height="7.2"/>
		</g>
		<g>
			<defs>
				<path id="SVGID_67_" d="M129.8,170.4c0-1,3-2.5,7.8-2.5c4.9,0,7.8,1.5,7.8,2.5c0,1-3,2.5-7.8,2.5
					C132.8,172.9,129.8,171.4,129.8,170.4 M128.7,170.4c0,2.4,4.6,3.6,9,3.6c4.3,0,9-1.3,9-3.6c0-2.3-4.6-3.6-9-3.6
					C133.3,166.8,128.7,168,128.7,170.4"/>
			</defs>
			<clipPath id="SVGID_68_">
				<use xlink:href="#SVGID_67_"  style="overflow:visible;"/>
			</clipPath>
			
				<linearGradient id="SVGID_69_" gradientUnits="userSpaceOnUse" x1="-503.7875" y1="1528.4337" x2="-503.3032" y2="1528.4337" gradientTransform="matrix(0 14.9534 -14.9534 0 22992.918 7700.0889)">
				<stop  offset="0" style="stop-color:#F8E452"/>
				<stop  offset="7.389160e-02" style="stop-color:#F8E452"/>
				<stop  offset="0.2121" style="stop-color:#F7DA56"/>
				<stop  offset="0.4498" style="stop-color:#F6BE60"/>
				<stop  offset="0.7563" style="stop-color:#F39170"/>
				<stop  offset="0.965" style="stop-color:#F16F7C"/>
				<stop  offset="1" style="stop-color:#F16F7C"/>
			</linearGradient>
			<rect x="128.7" y="166.8" class="st26" width="17.9" height="7.2"/>
		</g>
		<g>
			<defs>
				<path id="SVGID_70_" d="M130.3,165.1c0,0,0.2,0.1,0.4,0.3C130.6,165.3,130.5,165.2,130.3,165.1 M130.3,99.2
					C130.3,99.2,130.3,99.2,130.3,99.2L130.3,99.2L130.3,99.2z M129.8,97c0-1,3-2.5,7.8-2.5c4.9,0,7.8,1.5,7.8,2.5
					c0,1-3,2.5-7.8,2.5C132.8,99.5,129.8,98.1,129.8,97 M128.7,97v66.8l0,0c0,0.1,0,0.3,0,0.4c0,2.4,4.6,3.6,9,3.6
					c4.3,0,9-1.3,9-3.6V97c0-2.4-4.6-3.6-9-3.6C133.3,93.4,128.7,94.7,128.7,97"/>
			</defs>
			<clipPath id="SVGID_71_">
				<use xlink:href="#SVGID_70_"  style="overflow:visible;"/>
			</clipPath>
			
				<linearGradient id="SVGID_72_" gradientUnits="userSpaceOnUse" x1="-535.1184" y1="1515.6436" x2="-534.6341" y2="1515.6436" gradientTransform="matrix(0 153.7782 -153.7782 0 233210.5625 82382.9453)">
				<stop  offset="0" style="stop-color:#F8E452"/>
				<stop  offset="7.389160e-02" style="stop-color:#F8E452"/>
				<stop  offset="0.2121" style="stop-color:#F7DA56"/>
				<stop  offset="0.4498" style="stop-color:#F6BE60"/>
				<stop  offset="0.7563" style="stop-color:#F39170"/>
				<stop  offset="0.965" style="stop-color:#F16F7C"/>
				<stop  offset="1" style="stop-color:#F16F7C"/>
			</linearGradient>
			<rect x="128.7" y="93.4" class="st27" width="17.9" height="74.5"/>
		</g>
		<path class="st7" d="M123.7,190.3c0-0.5,0.2-0.9,0.4-1.1c1.2-1.6,0.1-2.8,0-2.8l0.3-0.3c0,0,0.4,0.4,0.6,1
			c0.2,0.6,0.2,1.4-0.6,2.4l0,0c0,0-0.7,0.8,0.1,1.7l-0.3,0.3C123.8,191,123.7,190.6,123.7,190.3"/>
		<path class="st7" d="M124.2,191.5L124.2,191.5c-0.4-0.4-0.6-0.8-0.6-1.3c0-0.5,0.2-0.9,0.4-1.2c1.2-1.5,0.1-2.6,0-2.7l-0.1-0.1
			l0.4-0.5l0.1,0.1c0.1,0.1,0.4,0.4,0.6,1c0.2,0.6,0.2,1.5-0.6,2.5c0,0-0.7,0.8,0,1.5l0.1,0.1L124.2,191.5z M124.3,186.4
			c0.3,0.3,1.1,1.4-0.1,2.9c-0.2,0.2-0.4,0.6-0.4,1c0,0.3,0.1,0.7,0.4,1l0.2-0.1c-0.7-0.9,0-1.7,0-1.7c0.8-1,0.7-1.8,0.5-2.3
			c-0.1-0.4-0.4-0.7-0.5-0.9L124.3,186.4z"/>
		<path class="st7" d="M123.7,176.7c0-0.5,0.2-0.9,0.4-1.1c1.2-1.6,0.1-2.8,0-2.8l0.3-0.3c0,0,0.4,0.4,0.6,1
			c0.2,0.6,0.2,1.4-0.6,2.4l0,0c0,0-0.7,0.8,0.1,1.7l-0.3,0.3C123.8,177.4,123.7,177,123.7,176.7"/>
		<path class="st7" d="M124.2,177.9L124.2,177.9c-0.4-0.4-0.6-0.8-0.6-1.3c0-0.5,0.2-0.9,0.4-1.2c1.2-1.5,0.1-2.6,0-2.7l-0.1-0.1
			l0.4-0.5l0.1,0.1c0.1,0.1,0.4,0.4,0.6,1c0.2,0.6,0.2,1.5-0.6,2.5c0,0-0.7,0.8,0,1.5l0.1,0.1L124.2,177.9z M124.3,172.8
			c0.3,0.3,1.1,1.4-0.1,2.9c-0.2,0.2-0.4,0.6-0.4,1c0,0.3,0.1,0.7,0.4,1l0.2-0.1c-0.7-0.9,0-1.7,0-1.7c0.8-1,0.7-1.8,0.5-2.3
			c-0.1-0.4-0.4-0.7-0.5-0.9L124.3,172.8z"/>
		<path class="st7" d="M123.7,87.1c0-0.5,0.2-0.9,0.4-1.1c1.2-1.6,0.1-2.8,0-2.8l0.3-0.3c0,0,0.4,0.4,0.6,1c0.2,0.6,0.2,1.4-0.6,2.4
			l0,0c0,0-0.7,0.8,0.1,1.7l-0.3,0.3C123.8,87.8,123.7,87.4,123.7,87.1"/>
		<path class="st7" d="M124.2,88.3L124.2,88.3c-0.4-0.4-0.6-0.8-0.6-1.3c0-0.5,0.2-0.9,0.4-1.2c1.2-1.5,0.1-2.6,0-2.7l-0.1-0.1
			l0.4-0.5l0.1,0.1c0.1,0.1,0.4,0.4,0.6,1c0.2,0.6,0.2,1.5-0.6,2.5c0,0-0.7,0.8,0,1.5l0.1,0.1L124.2,88.3z M124.3,83.2
			c0.3,0.3,1.1,1.4-0.1,2.9c-0.2,0.2-0.4,0.6-0.4,1c0,0.3,0.1,0.7,0.4,1l0.2-0.1c-0.7-0.9,0-1.7,0-1.7c0.8-1,0.7-1.8,0.5-2.3
			c-0.1-0.4-0.4-0.7-0.5-0.9L124.3,83.2z"/>
		<path class="st7" d="M123.7,59.5c0-0.5,0.2-0.9,0.4-1.1c1.2-1.6,0.1-2.8,0-2.8l0.3-0.3c0,0,0.4,0.4,0.6,1c0.2,0.6,0.2,1.4-0.6,2.4
			l0,0c0,0-0.7,0.8,0.1,1.7l-0.3,0.3C123.8,60.2,123.7,59.8,123.7,59.5"/>
		<path class="st7" d="M124.2,60.8L124.2,60.8c-0.4-0.4-0.6-0.8-0.6-1.3c0-0.5,0.2-0.9,0.4-1.2c1.2-1.5,0.1-2.6,0-2.7l-0.1-0.1
			l0.4-0.5l0.1,0.1c0.1,0.1,0.4,0.4,0.6,1c0.2,0.6,0.2,1.5-0.6,2.5c0,0-0.7,0.8,0,1.5l0.1,0.1L124.2,60.8z M124.3,55.6
			c0.3,0.3,1.1,1.4-0.1,2.9c-0.2,0.2-0.4,0.6-0.4,1c0,0.3,0.1,0.7,0.4,1l0.2-0.1c-0.7-0.9,0-1.7,0-1.7c0.8-1,0.7-1.8,0.5-2.3
			c-0.1-0.4-0.4-0.7-0.5-0.9L124.3,55.6z"/>
		<path class="st7" d="M149.4,72.5c0-0.5,0.2-0.9,0.4-1.1c1.2-1.6,0.1-2.8,0-2.8l0.3-0.3c0,0,0.4,0.4,0.6,1c0.2,0.6,0.2,1.4-0.6,2.4
			l0,0c0,0-0.7,0.8,0.1,1.7l-0.3,0.3C149.5,73.3,149.4,72.9,149.4,72.5"/>
		<path class="st7" d="M149.8,73.8L149.8,73.8c-0.4-0.4-0.6-0.8-0.6-1.3c0-0.5,0.2-0.9,0.4-1.2c1.2-1.5,0.1-2.6,0-2.7l-0.1-0.1
			l0.4-0.5l0.1,0.1c0.1,0.1,0.4,0.4,0.6,1c0.2,0.6,0.2,1.5-0.6,2.5c0,0-0.7,0.8,0,1.5l0.1,0.1L149.8,73.8z M149.9,68.6
			c0.3,0.3,1.1,1.4-0.1,2.9c-0.2,0.2-0.4,0.6-0.4,1c0,0.3,0.1,0.7,0.4,1l0.2-0.1c-0.7-0.9,0-1.7,0-1.7c0.8-1,0.7-1.8,0.5-2.3
			c-0.1-0.4-0.4-0.7-0.5-0.9L149.9,68.6z"/>
		<g>
			<defs>
				<path id="SVGID_73_" d="M129.8,90.9c0-1,3-2.5,7.8-2.5c4.9,0,7.8,1.5,7.8,2.5c0,1-3,2.5-7.8,2.5
					C132.8,93.4,129.8,91.9,129.8,90.9 M128.7,90.9c0,2.4,4.6,3.6,9,3.6c4.3,0,9-1.3,9-3.6c0-2.4-4.6-3.6-9-3.6
					C133.3,87.3,128.7,88.6,128.7,90.9"/>
			</defs>
			<clipPath id="SVGID_74_">
				<use xlink:href="#SVGID_73_"  style="overflow:visible;"/>
			</clipPath>
			
				<linearGradient id="SVGID_75_" gradientUnits="userSpaceOnUse" x1="-498.1499" y1="1528.4099" x2="-497.6656" y2="1528.4099" gradientTransform="matrix(0 14.9554 -14.9554 0 22995.6191 7537.3145)">
				<stop  offset="0" style="stop-color:#F8E452"/>
				<stop  offset="7.389160e-02" style="stop-color:#F8E452"/>
				<stop  offset="0.2121" style="stop-color:#F7DA56"/>
				<stop  offset="0.4498" style="stop-color:#F6BE60"/>
				<stop  offset="0.7563" style="stop-color:#F39170"/>
				<stop  offset="0.965" style="stop-color:#F16F7C"/>
				<stop  offset="1" style="stop-color:#F16F7C"/>
			</linearGradient>
			<rect x="128.7" y="87.3" class="st28" width="17.9" height="7.2"/>
		</g>
		<g>
			<defs>
				<path id="SVGID_76_" d="M129.8,84.8c0-1,3-2.5,7.8-2.5c4.9,0,7.8,1.4,7.8,2.5c0,1-3,2.5-7.8,2.5
					C132.8,87.3,129.8,85.8,129.8,84.8 M128.7,84.8c0,2.4,4.6,3.6,9,3.6c4.3,0,9-1.3,9-3.6c0-2.4-4.6-3.6-9-3.6
					C133.3,81.2,128.7,82.4,128.7,84.8"/>
			</defs>
			<clipPath id="SVGID_77_">
				<use xlink:href="#SVGID_76_"  style="overflow:visible;"/>
			</clipPath>
			
				<linearGradient id="SVGID_78_" gradientUnits="userSpaceOnUse" x1="-497.7027" y1="1528.4431" x2="-497.2184" y2="1528.4431" gradientTransform="matrix(0 14.9619 -14.9619 0 23006.0488 7527.7456)">
				<stop  offset="0" style="stop-color:#F8E452"/>
				<stop  offset="7.389160e-02" style="stop-color:#F8E452"/>
				<stop  offset="0.2121" style="stop-color:#F7DA56"/>
				<stop  offset="0.4498" style="stop-color:#F6BE60"/>
				<stop  offset="0.7563" style="stop-color:#F39170"/>
				<stop  offset="0.965" style="stop-color:#F16F7C"/>
				<stop  offset="1" style="stop-color:#F16F7C"/>
			</linearGradient>
			<rect x="128.7" y="81.2" class="st29" width="17.9" height="7.2"/>
		</g>
		<g>
			<defs>
				<path id="SVGID_79_" d="M129.8,78.7c0-1,3-2.5,7.8-2.5c4.9,0,7.8,1.5,7.8,2.5c0,1-3,2.5-7.8,2.5
					C132.8,81.2,129.8,79.7,129.8,78.7 M128.7,78.7c0,2.4,4.6,3.6,9,3.6c4.3,0,9-1.3,9-3.6c0-2.4-4.6-3.6-9-3.6
					C133.3,75.1,128.7,76.3,128.7,78.7"/>
			</defs>
			<clipPath id="SVGID_80_">
				<use xlink:href="#SVGID_79_"  style="overflow:visible;"/>
			</clipPath>
			
				<linearGradient id="SVGID_81_" gradientUnits="userSpaceOnUse" x1="-497.2913" y1="1528.4005" x2="-496.8071" y2="1528.4005" gradientTransform="matrix(0 14.9576 -14.9576 0 22998.8418 7513.3403)">
				<stop  offset="0" style="stop-color:#F8E452"/>
				<stop  offset="7.389160e-02" style="stop-color:#F8E452"/>
				<stop  offset="0.2121" style="stop-color:#F7DA56"/>
				<stop  offset="0.4498" style="stop-color:#F6BE60"/>
				<stop  offset="0.7563" style="stop-color:#F39170"/>
				<stop  offset="0.965" style="stop-color:#F16F7C"/>
				<stop  offset="1" style="stop-color:#F16F7C"/>
			</linearGradient>
			<rect x="128.7" y="75.1" class="st30" width="17.9" height="7.2"/>
		</g>
		<g>
			<defs>
				<path id="SVGID_82_" d="M129.8,72.6c0-1,3-2.5,7.8-2.5c4.9,0,7.8,1.4,7.8,2.5c0,1-3,2.5-7.8,2.5
					C132.8,75.1,129.8,73.6,129.8,72.6 M128.7,72.6c0,2.4,4.6,3.6,9,3.6c4.3,0,9-1.3,9-3.6c0-2.4-4.6-3.6-9-3.6
					C133.3,68.9,128.7,70.2,128.7,72.6"/>
			</defs>
			<clipPath id="SVGID_83_">
				<use xlink:href="#SVGID_82_"  style="overflow:visible;"/>
			</clipPath>
			
				<linearGradient id="SVGID_84_" gradientUnits="userSpaceOnUse" x1="-496.8433" y1="1528.4205" x2="-496.3589" y2="1528.4205" gradientTransform="matrix(0 14.9586 -14.9586 0 23000.668 7501.0195)">
				<stop  offset="0" style="stop-color:#F8E452"/>
				<stop  offset="7.389160e-02" style="stop-color:#F8E452"/>
				<stop  offset="0.2121" style="stop-color:#F7DA56"/>
				<stop  offset="0.4498" style="stop-color:#F6BE60"/>
				<stop  offset="0.7563" style="stop-color:#F39170"/>
				<stop  offset="0.965" style="stop-color:#F16F7C"/>
				<stop  offset="1" style="stop-color:#F16F7C"/>
			</linearGradient>
			<rect x="128.7" y="68.9" class="st31" width="17.9" height="7.2"/>
		</g>
		<g>
			<defs>
				<path id="SVGID_85_" d="M129.8,66.4c0-1,3-2.5,7.8-2.5c4.9,0,7.8,1.4,7.8,2.5c0,1-3,2.5-7.8,2.5
					C132.8,68.9,129.8,67.5,129.8,66.4 M128.7,66.4c0,2.3,4.6,3.6,9,3.6c4.3,0,9-1.3,9-3.6c0-2.4-4.6-3.6-9-3.6
					C133.3,62.8,128.7,64.1,128.7,66.4"/>
			</defs>
			<clipPath id="SVGID_86_">
				<use xlink:href="#SVGID_85_"  style="overflow:visible;"/>
			</clipPath>
			
				<linearGradient id="SVGID_87_" gradientUnits="userSpaceOnUse" x1="-496.408" y1="1528.4099" x2="-495.9237" y2="1528.4099" gradientTransform="matrix(0 14.9554 -14.9554 0 22995.6191 7486.8066)">
				<stop  offset="0" style="stop-color:#F8E452"/>
				<stop  offset="7.389160e-02" style="stop-color:#F8E452"/>
				<stop  offset="0.2121" style="stop-color:#F7DA56"/>
				<stop  offset="0.4498" style="stop-color:#F6BE60"/>
				<stop  offset="0.7563" style="stop-color:#F39170"/>
				<stop  offset="0.965" style="stop-color:#F16F7C"/>
				<stop  offset="1" style="stop-color:#F16F7C"/>
			</linearGradient>
			<rect x="128.7" y="62.8" class="st32" width="17.9" height="7.2"/>
		</g>
		<g>
			<defs>
				<path id="SVGID_88_" d="M129.8,60.3c0-1,3-2.5,7.8-2.5c4.9,0,7.8,1.4,7.8,2.5c0,1-3,2.5-7.8,2.5
					C132.8,62.8,129.8,61.4,129.8,60.3 M128.7,60.3c0,2.4,4.6,3.6,9,3.6c4.3,0,9-1.3,9-3.6c0-2.4-4.6-3.6-9-3.6
					C133.3,56.7,128.7,58,128.7,60.3"/>
			</defs>
			<clipPath id="SVGID_89_">
				<use xlink:href="#SVGID_88_"  style="overflow:visible;"/>
			</clipPath>
			
				<linearGradient id="SVGID_90_" gradientUnits="userSpaceOnUse" x1="-495.9727" y1="1528.4205" x2="-495.4884" y2="1528.4205" gradientTransform="matrix(0 14.9586 -14.9586 0 23000.668 7475.7695)">
				<stop  offset="0" style="stop-color:#F8E452"/>
				<stop  offset="7.389160e-02" style="stop-color:#F8E452"/>
				<stop  offset="0.2121" style="stop-color:#F7DA56"/>
				<stop  offset="0.4498" style="stop-color:#F6BE60"/>
				<stop  offset="0.7563" style="stop-color:#F39170"/>
				<stop  offset="0.965" style="stop-color:#F16F7C"/>
				<stop  offset="1" style="stop-color:#F16F7C"/>
			</linearGradient>
			<rect x="128.7" y="56.7" class="st33" width="17.9" height="7.2"/>
		</g>
		<g>
			<defs>
				<path id="SVGID_91_" d="M129.8,54.2c0-1,3-2.5,7.8-2.5c4.9,0,7.8,1.5,7.8,2.5c0,1-3,2.5-7.8,2.5
					C132.8,56.7,129.8,55.3,129.8,54.2 M128.7,54.2c0,2.4,4.6,3.6,9,3.6c4.3,0,9-1.3,9-3.6c0-2.4-4.6-3.6-9-3.6
					C133.3,50.6,128.7,51.9,128.7,54.2"/>
			</defs>
			<clipPath id="SVGID_92_">
				<use xlink:href="#SVGID_91_"  style="overflow:visible;"/>
			</clipPath>
			
				<linearGradient id="SVGID_93_" gradientUnits="userSpaceOnUse" x1="-495.5502" y1="1528.4005" x2="-495.0659" y2="1528.4005" gradientTransform="matrix(0 14.9576 -14.9576 0 22998.8418 7462.8403)">
				<stop  offset="0" style="stop-color:#F8E452"/>
				<stop  offset="7.389160e-02" style="stop-color:#F8E452"/>
				<stop  offset="0.2121" style="stop-color:#F7DA56"/>
				<stop  offset="0.4498" style="stop-color:#F6BE60"/>
				<stop  offset="0.7563" style="stop-color:#F39170"/>
				<stop  offset="0.965" style="stop-color:#F16F7C"/>
				<stop  offset="1" style="stop-color:#F16F7C"/>
			</linearGradient>
			<rect x="128.7" y="50.6" class="st34" width="17.9" height="7.2"/>
		</g>
		<g>
			<defs>
				<path id="SVGID_94_" d="M129.2,48.3c0,1.7,3.8,3.1,8.4,3.1c4.6,0,8.3-1.3,8.4-3v-0.1c-0.1-1.7-3.8-3-8.4-3
					C133,45.3,129.2,46.7,129.2,48.3"/>
			</defs>
			<clipPath id="SVGID_95_">
				<use xlink:href="#SVGID_94_"  style="overflow:visible;"/>
			</clipPath>
			
				<linearGradient id="SVGID_96_" gradientUnits="userSpaceOnUse" x1="-487.0479" y1="1531.0426" x2="-486.5636" y2="1531.0426" gradientTransform="matrix(0 12.6274 -12.6274 0 19470.7246 6195.4351)">
				<stop  offset="0" style="stop-color:#F8E452"/>
				<stop  offset="7.389160e-02" style="stop-color:#F8E452"/>
				<stop  offset="0.2121" style="stop-color:#F7DA56"/>
				<stop  offset="0.4498" style="stop-color:#F6BE60"/>
				<stop  offset="0.7563" style="stop-color:#F39170"/>
				<stop  offset="0.965" style="stop-color:#F16F7C"/>
				<stop  offset="1" style="stop-color:#F16F7C"/>
			</linearGradient>
			<rect x="129.2" y="45.3" class="st35" width="16.8" height="6.1"/>
		</g>
		<path class="st7" d="M130.3,51.2c0,0.3-0.2,0.5-0.5,0.5c-0.3,0-0.5-0.2-0.5-0.5c0-0.3,0.2-0.5,0.5-0.5
			C130.1,50.6,130.3,50.9,130.3,51.2"/>
		<path class="st7" d="M130.3,57.3c0,0.3-0.2,0.5-0.5,0.5c-0.3,0-0.5-0.2-0.5-0.5c0-0.3,0.2-0.5,0.5-0.5
			C130.1,56.7,130.3,57,130.3,57.3"/>
		<path class="st7" d="M130.3,63.5c0,0.3-0.2,0.5-0.5,0.5c-0.3,0-0.5-0.2-0.5-0.5c0-0.3,0.2-0.5,0.5-0.5
			C130.1,62.9,130.3,63.2,130.3,63.5"/>
		<path class="st7" d="M130.3,69.6c0,0.3-0.2,0.5-0.5,0.5c-0.3,0-0.5-0.2-0.5-0.5c0-0.3,0.2-0.5,0.5-0.5
			C130.1,69.1,130.3,69.3,130.3,69.6"/>
		<path class="st7" d="M130.3,75.7c0,0.3-0.2,0.5-0.5,0.5c-0.3,0-0.5-0.2-0.5-0.5c0-0.3,0.2-0.5,0.5-0.5
			C130.1,75.2,130.3,75.4,130.3,75.7"/>
		<path class="st7" d="M130.3,81.7c0,0.3-0.2,0.5-0.5,0.5c-0.3,0-0.5-0.2-0.5-0.5c0-0.3,0.2-0.5,0.5-0.5
			C130.1,81.2,130.3,81.4,130.3,81.7"/>
		<path class="st7" d="M130.3,88c0,0.3-0.2,0.5-0.5,0.5c-0.3,0-0.5-0.2-0.5-0.5c0-0.3,0.2-0.5,0.5-0.5
			C130.1,87.4,130.3,87.7,130.3,88"/>
		<path class="st7" d="M130.3,94c0,0.3-0.2,0.5-0.5,0.5c-0.3,0-0.5-0.2-0.5-0.5c0-0.3,0.2-0.5,0.5-0.5
			C130.1,93.4,130.3,93.7,130.3,94"/>
		<path class="st7" d="M130.3,167.5c0,0.3-0.2,0.5-0.5,0.5c-0.3,0-0.5-0.2-0.5-0.5c0-0.3,0.2-0.5,0.5-0.5
			C130.1,167,130.3,167.2,130.3,167.5"/>
		<path class="st7" d="M130.3,173.4c0,0.3-0.2,0.5-0.5,0.5c-0.3,0-0.5-0.2-0.5-0.5c0-0.3,0.2-0.5,0.5-0.5
			C130.1,172.9,130.3,173.1,130.3,173.4"/>
		<path class="st7" d="M130.3,179.5c0,0.3-0.2,0.5-0.5,0.5c-0.3,0-0.5-0.2-0.5-0.5c0-0.3,0.2-0.5,0.5-0.5
			C130.1,179,130.3,179.2,130.3,179.5"/>
		<path class="st7" d="M130.3,185.7c0,0.3-0.2,0.5-0.5,0.5c-0.3,0-0.5-0.2-0.5-0.5c0-0.3,0.2-0.5,0.5-0.5
			C130.1,185.2,130.3,185.4,130.3,185.7"/>
		<path class="st7" d="M130.3,191.8c0,0.3-0.2,0.5-0.5,0.5c-0.3,0-0.5-0.2-0.5-0.5c0-0.3,0.2-0.5,0.5-0.5
			C130.1,191.2,130.3,191.5,130.3,191.8"/>
		<path class="st7" d="M130.3,198.3c0,0.3-0.2,0.5-0.5,0.5c-0.3,0-0.5-0.2-0.5-0.5c0-0.3,0.2-0.5,0.5-0.5
			C130.1,197.8,130.3,198,130.3,198.3"/>
		<path class="st7" d="M146.2,51.2c0,0.3-0.2,0.5-0.5,0.5c-0.3,0-0.5-0.2-0.5-0.5c0-0.3,0.2-0.5,0.5-0.5
			C145.9,50.6,146.2,50.9,146.2,51.2"/>
		<path class="st7" d="M146.2,57.3c0,0.3-0.2,0.5-0.5,0.5c-0.3,0-0.5-0.2-0.5-0.5c0-0.3,0.2-0.5,0.5-0.5
			C145.9,56.7,146.2,57,146.2,57.3"/>
		<path class="st7" d="M146.2,63.5c0,0.3-0.2,0.5-0.5,0.5c-0.3,0-0.5-0.2-0.5-0.5c0-0.3,0.2-0.5,0.5-0.5
			C145.9,62.9,146.2,63.2,146.2,63.5"/>
		<path class="st7" d="M146.2,69.6c0,0.3-0.2,0.5-0.5,0.5c-0.3,0-0.5-0.2-0.5-0.5c0-0.3,0.2-0.5,0.5-0.5
			C145.9,69.1,146.2,69.3,146.2,69.6"/>
		<path class="st7" d="M146.2,75.7c0,0.3-0.2,0.5-0.5,0.5c-0.3,0-0.5-0.2-0.5-0.5c0-0.3,0.2-0.5,0.5-0.5
			C145.9,75.2,146.2,75.4,146.2,75.7"/>
		<path class="st7" d="M146.2,81.7c0,0.3-0.2,0.5-0.5,0.5c-0.3,0-0.5-0.2-0.5-0.5c0-0.3,0.2-0.5,0.5-0.5
			C145.9,81.2,146.2,81.4,146.2,81.7"/>
		<path class="st7" d="M146.2,88c0,0.3-0.2,0.5-0.5,0.5c-0.3,0-0.5-0.2-0.5-0.5c0-0.3,0.2-0.5,0.5-0.5
			C145.9,87.4,146.2,87.7,146.2,88"/>
		<path class="st7" d="M146.2,94c0,0.3-0.2,0.5-0.5,0.5c-0.3,0-0.5-0.2-0.5-0.5c0-0.3,0.2-0.5,0.5-0.5
			C145.9,93.4,146.2,93.7,146.2,94"/>
		<path class="st7" d="M146.2,167.5c0,0.3-0.2,0.5-0.5,0.5c-0.3,0-0.5-0.2-0.5-0.5c0-0.3,0.2-0.5,0.5-0.5
			C145.9,167,146.2,167.2,146.2,167.5"/>
		<path class="st7" d="M146.2,173.4c0,0.3-0.2,0.5-0.5,0.5c-0.3,0-0.5-0.2-0.5-0.5c0-0.3,0.2-0.5,0.5-0.5
			C145.9,172.9,146.2,173.1,146.2,173.4"/>
		<path class="st7" d="M146.2,179.5c0,0.3-0.2,0.5-0.5,0.5c-0.3,0-0.5-0.2-0.5-0.5c0-0.3,0.2-0.5,0.5-0.5
			C145.9,179,146.2,179.2,146.2,179.5"/>
		<path class="st7" d="M146.2,185.7c0,0.3-0.2,0.5-0.5,0.5c-0.3,0-0.5-0.2-0.5-0.5c0-0.3,0.2-0.5,0.5-0.5
			C145.9,185.2,146.2,185.4,146.2,185.7"/>
		<path class="st7" d="M146.2,191.8c0,0.3-0.2,0.5-0.5,0.5c-0.3,0-0.5-0.2-0.5-0.5c0-0.3,0.2-0.5,0.5-0.5
			C145.9,191.2,146.2,191.5,146.2,191.8"/>
		<path class="st7" d="M146.2,198.3c0,0.3-0.2,0.5-0.5,0.5c-0.3,0-0.5-0.2-0.5-0.5c0-0.3,0.2-0.5,0.5-0.5
			C145.9,197.8,146.2,198,146.2,198.3"/>
		<g>
			<defs>
				<path id="SVGID_97_" d="M134.6,48.3c0,0.8,1.4,1.5,3.1,1.5s3.1-0.7,3.1-1.5c0-0.8-1.4-1.5-3.1-1.5S134.6,47.5,134.6,48.3"/>
			</defs>
			<clipPath id="SVGID_98_">
				<use xlink:href="#SVGID_97_"  style="overflow:visible;"/>
			</clipPath>
			
				<radialGradient id="SVGID_99_" cx="-581.7012" cy="1645.9586" r="0.4843" gradientTransform="matrix(4.9623 0 0 4.9623 3024.2766 -8119.3965)" gradientUnits="userSpaceOnUse">
				<stop  offset="0" style="stop-color:#8074B4"/>
				<stop  offset="7.389160e-02" style="stop-color:#8074B4"/>
				<stop  offset="0.2161" style="stop-color:#8A74AF"/>
				<stop  offset="0.461" style="stop-color:#A672A1"/>
				<stop  offset="0.7772" style="stop-color:#D3708B"/>
				<stop  offset="0.965" style="stop-color:#F16F7C"/>
				<stop  offset="1" style="stop-color:#F16F7C"/>
			</radialGradient>
			<rect x="134.6" y="46.9" class="st36" width="6.1" height="2.9"/>
		</g>
		<polygon class="st37" points="124.4,158.4 123.2,159.6 124.4,163 125.6,159.6 		"/>
		<line class="st38" x1="124.4" y1="155.4" x2="124.4" y2="97.6"/>
		<polygon class="st37" points="150,86.8 151.3,85.6 150,82.3 148.8,85.6 		"/>
		<line class="st38" x1="150.1" y1="89.9" x2="150.1" y2="200.2"/>
		<polyline class="st14" points="141.6,215.9 153.4,215.9 153.4,41.2 137.8,41.2 137.8,48.3 		"/>
	</g>
</g>
</svg>
